<svg xmlns="http://www.w3.org/2000/svg" xmlns:xlink="http://www.w3.org/1999/xlink" width="204.195" height="317.58" viewBox="0 0 153.146 238.185"><defs><symbol overflow="visible" id="b"><path d="M7.14-12.953c0-.594-.03-.594-.702-.594-1.516 1.313-3.813 1.313-4.266 1.313h-.39v.89h.39c.719 0 1.812-.125 2.64-.39V-.891H1.938V0c.875-.047 3.047-.047 4.016-.047.969 0 3.156 0 4.031.047v-.89H7.141zm0 0"/></symbol><symbol overflow="visible" id="c"><path d="M10.672-6.594c0-1.984 0-6.953-4.875-6.953-4.89 0-4.89 4.953-4.89 6.953C.906-4.609.906.25 5.78.25c4.875 0 4.89-4.797 4.89-6.844zM5.797-.437c-.656 0-1.156-.266-1.563-.704-.515-.515-.843-.843-.843-5.703 0-1.437 0-2.765.156-3.828.297-2.047 1.781-2.203 2.234-2.203.657 0 1.938.313 2.235 2.047.187 1.062.187 2.734.187 3.984 0 4.875-.312 5.172-.937 5.797-.407.406-.97.61-1.47.61zm0 0"/></symbol><symbol overflow="visible" id="d"><path d="M5.969-1.531h.61v-.39c-.095.015-.75.03-1.173.03h-.86c-.202 0-.546-.015-.75-.03v.39h1.11v.656c0 .172 0 .563-1.031.563-.328 0-1.094-.016-1.64-.485-.329-.281-.579-.719-.579-1.594 0-.703.157-1.218.532-1.562.453-.438 1.156-.516 1.578-.516.78 0 1.53.469 1.703 1.375.015.14.031.156.218.156h.063c.188 0 .219-.015.219-.218v-1.485c0-.14 0-.218-.157-.218-.093 0-.109 0-.171.062l-.47.406c-.702-.468-1.343-.468-1.562-.468C1.594-4.86.516-3.734.516-2.391c0 1.125.812 2.47 3.156 2.47.375 0 1.172-.017 1.531-.376.156.11.578.297.64.297.126 0 .126-.125.126-.219zm0 0"/></symbol><symbol overflow="visible" id="e"><path d="M4.39-2.36c.391-.124 1.157-.437 1.157-1.109 0-.75-.906-1.312-2.297-1.312H.39v.39h.75v4H.39V0a40.27 40.27 0 011.25-.031c.032 0 1.063.015 1.25.031v-.39h-.75v-1.844h.97c.14 0 .437 0 .718.234.25.188.25.36.25.86 0 .562 0 1.218 1.61 1.218.828 0 .937-.61.937-.765 0-.172-.125-.172-.219-.172-.093 0-.203 0-.218.156-.032.375-.282.469-.438.469-.453 0-.516-.454-.578-1-.078-.47-.125-.891-.781-1.125zm-1.234-.187H2.141V-4.39h1.046c1.126 0 1.22.47 1.22.922 0 .438-.095.922-1.25.922zm0 0"/></symbol><symbol overflow="visible" id="f"><path d="M5.594-1.875h-.438c-.187 1-.484 1.484-1.687 1.484H2.188v-1.875h.468c.594 0 .797.172.797.782h.438v-1.938h-.438c0 .61-.203.781-.797.781h-.469v-1.703h1.22c.968 0 1.374.282 1.5 1.282h.452l-.25-1.672H.391v.39h.75V-.39H.39V0h4.843zm0 0"/></symbol><symbol overflow="visible" id="g"><path d="M2.281-4.688c-.094-.093-.094-.093-.25-.093H.391v.39h.75v3.829c0 .109 0 .109-.016.125-.063.046-.422.046-.5.046H.391V0c.093 0 .734-.031 1-.031.265 0 .937.031.984.031v-.39h-.234c-.094 0-.235 0-.344-.016-.156-.016-.172-.016-.172-.156v-3.485L5.359-.078C5.422 0 5.453 0 5.594 0c.203 0 .234-.031.234-.25v-3.969c0-.11.016-.11.031-.125.063-.047.407-.047.485-.047h.234v-.39c-.094 0-.719.031-.984.031-.266 0-.938-.031-1-.031v.39h.234c.11 0 .25 0 .344.016.172.016.172.016.172.156v2.797zm0 0"/></symbol><symbol overflow="visible" id="i"><path d="M-7.14 12.953c0 .594.03.594.702.594 1.516-1.313 3.813-1.313 4.266-1.313h.39v-.89h-.39c-.719 0-1.812.125-2.64.39V.891h2.875V0c-.875.047-3.047.047-4.016.047-.969 0-3.156 0-4.031-.047v.89h2.843zm0 0"/></symbol><symbol overflow="visible" id="j"><path d="M-10.672 6.594c0 1.984 0 6.953 4.875 6.953 4.89 0 4.89-4.953 4.89-6.953 0-1.985 0-6.844-4.874-6.844-4.875 0-4.89 4.797-4.89 6.844zM-5.797.437c.656 0 1.156.266 1.563.704.515.515.843.843.843 5.703 0 1.437 0 2.765-.156 3.828-.297 2.047-1.781 2.203-2.234 2.203-.657 0-1.938-.313-2.235-2.047-.187-1.062-.187-2.734-.187-3.984 0-4.875.312-5.172.937-5.797.407-.406.97-.61 1.47-.61zm0 0"/></symbol><symbol overflow="visible" id="k"><path d="M-5.969 1.531h-.61v.39c.095-.015.75-.03 1.173-.03h.86c.202 0 .546.015.75.03v-.39h-1.11V.875c0-.172 0-.563 1.031-.563.328 0 1.094.016 1.64.485.329.281.579.719.579 1.594 0 .703-.157 1.218-.532 1.562-.453.438-1.156.516-1.578.516-.78 0-1.53-.469-1.703-1.375-.015-.14-.031-.156-.218-.156h-.063c-.188 0-.219.015-.219.218v1.485c0 .14 0 .218.157.218.093 0 .109 0 .171-.062l.47-.406a2.714 2.714 0 001.562.468c2.015 0 3.093-1.125 3.093-2.468 0-1.125-.812-2.47-3.156-2.47-.375 0-1.172.017-1.531.376C-5.36.187-5.781 0-5.843 0c-.126 0-.126.125-.126.219zm0 0"/></symbol><symbol overflow="visible" id="l"><path d="M-4.39 2.36c-.391.124-1.157.437-1.157 1.109 0 .75.906 1.312 2.297 1.312h2.86v-.39h-.75v-4h.75V0a40.27 40.27 0 01-1.25.031C-1.673.031-2.704.016-2.89 0v.39h.75v1.844h-.97c-.14 0-.437 0-.718-.234-.25-.188-.25-.36-.25-.86 0-.562 0-1.218-1.61-1.218-.828 0-.937.61-.937.765 0 .172.125.172.219.172.093 0 .203 0 .218-.156.032-.375.282-.469.438-.469.453 0 .516.454.578 1 .078.47.125.891.781 1.125zm1.234.187h1.015V4.39h-1.046c-1.126 0-1.22-.47-1.22-.922 0-.438.095-.922 1.25-.922zm0 0"/></symbol><symbol overflow="visible" id="m"><path d="M-5.594 1.875h.438C-4.97.875-4.672.391-3.47.391h1.281v1.875h-.468c-.594 0-.797-.172-.797-.782h-.438v1.938h.438c0-.61.203-.781.797-.781h.469v1.703h-1.22c-.968 0-1.374-.282-1.5-1.282h-.452l.25 1.672h4.718v-.39h-.75V.39h.75V0h-4.843zm0 0"/></symbol><symbol overflow="visible" id="n"><path d="M-2.281 4.688c.094.093.094.093.25.093h1.64v-.39h-.75V.562c0-.109 0-.109.016-.125.063-.046.422-.046.5-.046h.234V0c-.093 0-.734.031-1 .031-.265 0-.937-.031-.984-.031v.39h.234c.094 0 .235 0 .344.016.156.016.172.016.172.156v3.485L-5.359.078C-5.422 0-5.453 0-5.594 0c-.203 0-.234.031-.234.25v3.969c0 .11-.016.11-.031.125-.063.047-.407.047-.485.047h-.234v.39c.094 0 .719-.031.984-.031.266 0 .938.031 1 .031v-.39h-.234c-.11 0-.25 0-.344-.016-.172-.016-.172-.016-.172-.156V1.422zm0 0"/></symbol><symbol overflow="visible" id="o"><path d="M20.688-37.484c0-1.735-.125-1.735-2.032-1.735C14.234-35.39 7.594-35.39 6.281-35.39h-1.14v2.578h1.14c2.094 0 5.25-.359 7.64-1.14v31.375H5.626V0c2.5-.125 8.781-.125 11.594-.125 2.812 0 9.14 0 11.656.125v-2.578h-8.188zm0 0"/></symbol><symbol overflow="visible" id="p"><path d="M30.906-19.063c0-5.75 0-20.156-14.11-20.156-14.171 0-14.171 14.344-14.171 20.157 0 5.734 0 19.78 14.11 19.78 14.109 0 14.171-13.874 14.171-19.78zM16.796-1.25c-1.905 0-3.343-.781-4.546-2.031-1.484-1.5-2.453-2.453-2.453-16.5 0-4.188 0-8.016.484-11.125.844-5.922 5.14-6.344 6.453-6.344 1.922 0 5.625.906 6.453 5.922.547 3.047.547 7.89.547 11.547 0 14.11-.89 14.937-2.687 16.734-1.203 1.188-2.813 1.797-4.25 1.797zm0 0"/></symbol><clipPath id="a"><path d="M0 0h153.145v238.184H0zm0 0"/></clipPath><clipPath id="h"><path d="M0 36h153.145v166H0zm0 0"/></clipPath></defs><g clip-path="url(#a)"><path d="M0 238.184V-.004h153.148v238.188zm0 0" fill="#fefefe"/></g><path d="M5.707 232.477V5.703h141.734v226.774zm0 0" fill="none" stroke-width="2.835" stroke="#3d8922" stroke-miterlimit="10"/><g fill="#3d8922"><use xlink:href="#b" x="15.696" y="33.854"/><use xlink:href="#c" x="27.319" y="33.854"/></g><g fill="#3d8922"><use xlink:href="#d" x="42.625" y="25.35"/><use xlink:href="#e" x="49.679" y="25.35"/><use xlink:href="#f" x="56.373" y="25.35"/><use xlink:href="#f" x="62.262" y="25.35"/><use xlink:href="#g" x="68.151" y="25.35"/></g><g clip-path="url(#h)"><path d="M34.055 82.238v73.703a5.667 5.667 0 005.668 5.668h73.703a5.667 5.667 0 005.668-5.668V82.238a5.67 5.67 0 00-5.668-5.668H39.723a5.67 5.67 0 00-5.668 5.668zm0 0" fill="none" stroke-width="2.835" stroke="#3d8922" stroke-miterlimit="10"/></g><g fill="#3d8922"><use xlink:href="#i" x="137.45" y="204.331"/><use xlink:href="#j" x="125.827" y="204.331"/></g><g fill="#3d8922"><use xlink:href="#k" x="110.521" y="212.835"/><use xlink:href="#l" x="103.467" y="212.835"/><use xlink:href="#m" x="96.773" y="212.835"/><use xlink:href="#m" x="90.884" y="212.835"/><use xlink:href="#n" x="84.995" y="212.835"/></g><g fill="#3d8922"><use xlink:href="#o" x="44.042" y="140.153"/><use xlink:href="#p" x="77.666" y="140.153"/></g></svg>