<svg xmlns="http://www.w3.org/2000/svg" xmlns:xlink="http://www.w3.org/1999/xlink" width="204.195" height="317.58" viewBox="0 0 153.146 238.185"><defs><symbol overflow="visible" id="b"><path d="M7.14-12.953c0-.594-.03-.594-.702-.594-1.516 1.313-3.813 1.313-4.266 1.313h-.39v.89h.39c.719 0 1.812-.125 2.64-.39V-.891H1.938V0c.875-.047 3.047-.047 4.016-.047.969 0 3.156 0 4.031.047v-.89H7.141zm0 0"/></symbol><symbol overflow="visible" id="c"><path d="M5.39-6.844c2.313 0 2.313 2.157 2.313 3.14 0 .938 0 3.126-2.234 3.126-.422 0-1.797-.063-2.782-.766.891-.187 1.204-.828 1.204-1.437 0-.86-.61-1.453-1.454-1.453-.874 0-1.468.593-1.468 1.468C.969-.875 3.03.25 5.579.25c3.405 0 5.046-1.875 5.046-3.953 0-1-.531-2.969-3.719-3.531 1.813-.547 3.078-1.829 3.078-3.47 0-1.546-1.5-2.843-4.359-2.843-2.313 0-4.016 1.219-4.016 2.89 0 1.032.813 1.36 1.344 1.36.594 0 1.328-.39 1.328-1.344 0-.468-.218-1.171-1.187-1.312.875-.86 2.281-.86 2.406-.86 1.828 0 1.828 1.438 1.828 2.047 0 .625-.078 1.579-.734 2.422-.547.703-1.078.75-1.86.781-.25.016-.671.047-.75.079-.125.062-.125.218-.125.296 0 .344.125.344.547.344zm0 0"/></symbol><symbol overflow="visible" id="d"><path d="M5.969-1.531h.61v-.39c-.095.015-.75.03-1.173.03h-.86c-.202 0-.546-.015-.75-.03v.39h1.11v.656c0 .172 0 .563-1.031.563-.328 0-1.094-.016-1.64-.485-.329-.281-.579-.719-.579-1.594 0-.703.157-1.218.532-1.562.453-.438 1.156-.516 1.578-.516.78 0 1.53.469 1.703 1.375.015.14.031.156.218.156h.063c.188 0 .219-.015.219-.218v-1.485c0-.14 0-.218-.157-.218-.093 0-.109 0-.171.062l-.47.406c-.702-.468-1.343-.468-1.562-.468C1.594-4.86.516-3.734.516-2.391c0 1.125.812 2.47 3.156 2.47.375 0 1.172-.017 1.531-.376.156.11.578.297.64.297.126 0 .126-.125.126-.219zm0 0"/></symbol><symbol overflow="visible" id="e"><path d="M4.39-2.36c.391-.124 1.157-.437 1.157-1.109 0-.75-.906-1.312-2.297-1.312H.39v.39h.75v4H.39V0a40.27 40.27 0 011.25-.031c.032 0 1.063.015 1.25.031v-.39h-.75v-1.844h.97c.14 0 .437 0 .718.234.25.188.25.36.25.86 0 .562 0 1.218 1.61 1.218.828 0 .937-.61.937-.765 0-.172-.125-.172-.219-.172-.093 0-.203 0-.218.156-.032.375-.282.469-.438.469-.453 0-.516-.454-.578-1-.078-.47-.125-.891-.781-1.125zm-1.234-.187H2.141V-4.39h1.046c1.126 0 1.22.47 1.22.922 0 .438-.095.922-1.25.922zm0 0"/></symbol><symbol overflow="visible" id="f"><path d="M5.594-1.875h-.438c-.187 1-.484 1.484-1.687 1.484H2.188v-1.875h.468c.594 0 .797.172.797.782h.438v-1.938h-.438c0 .61-.203.781-.797.781h-.469v-1.703h1.22c.968 0 1.374.282 1.5 1.282h.452l-.25-1.672H.391v.39h.75V-.39H.39V0h4.843zm0 0"/></symbol><symbol overflow="visible" id="g"><path d="M2.281-4.688c-.094-.093-.094-.093-.25-.093H.391v.39h.75v3.829c0 .109 0 .109-.016.125-.063.046-.422.046-.5.046H.391V0c.093 0 .734-.031 1-.031.265 0 .937.031.984.031v-.39h-.234c-.094 0-.235 0-.344-.016-.156-.016-.172-.016-.172-.156v-3.485L5.359-.078C5.422 0 5.453 0 5.594 0c.203 0 .234-.031.234-.25v-3.969c0-.11.016-.11.031-.125.063-.047.407-.047.485-.047h.234v-.39c-.094 0-.719.031-.984.031-.266 0-.938-.031-1-.031v.39h.234c.11 0 .25 0 .344.016.172.016.172.016.172.156v2.797zm0 0"/></symbol><symbol overflow="visible" id="i"><path d="M-7.14 12.953c0 .594.03.594.702.594 1.516-1.313 3.813-1.313 4.266-1.313h.39v-.89h-.39c-.719 0-1.812.125-2.64.39V.891h2.875V0c-.875.047-3.047.047-4.016.047-.969 0-3.156 0-4.031-.047v.89h2.843zm0 0"/></symbol><symbol overflow="visible" id="j"><path d="M-5.39 6.844c-2.313 0-2.313-2.157-2.313-3.14 0-.938 0-3.126 2.234-3.126.422 0 1.797.063 2.782.766-.891.187-1.204.828-1.204 1.437 0 .86.61 1.453 1.454 1.453.874 0 1.468-.593 1.468-1.468C-.969.875-3.03-.25-5.579-.25c-3.405 0-5.046 1.875-5.046 3.953 0 1 .531 2.969 3.719 3.531-1.813.547-3.078 1.829-3.078 3.47 0 1.546 1.5 2.843 4.359 2.843 2.313 0 4.016-1.219 4.016-2.89 0-1.032-.813-1.36-1.344-1.36-.594 0-1.328.39-1.328 1.344 0 .468.218 1.171 1.187 1.312-.875.86-2.281.86-2.406.86-1.828 0-1.828-1.438-1.828-2.047 0-.625.078-1.579.734-2.422.547-.703 1.078-.75 1.86-.781.25-.016.671-.047.75-.079.125-.062.125-.218.125-.296 0-.344-.125-.344-.547-.344zm0 0"/></symbol><symbol overflow="visible" id="k"><path d="M-5.969 1.531h-.61v.39c.095-.015.75-.03 1.173-.03h.86c.202 0 .546.015.75.03v-.39h-1.11V.875c0-.172 0-.563 1.031-.563.328 0 1.094.016 1.64.485.329.281.579.719.579 1.594 0 .703-.157 1.218-.532 1.562-.453.438-1.156.516-1.578.516-.78 0-1.53-.469-1.703-1.375-.015-.14-.031-.156-.218-.156h-.063c-.188 0-.219.015-.219.218v1.485c0 .14 0 .218.157.218.093 0 .109 0 .171-.062l.47-.406a2.714 2.714 0 001.562.468c2.015 0 3.093-1.125 3.093-2.468 0-1.125-.812-2.47-3.156-2.47-.375 0-1.172.017-1.531.376C-5.36.187-5.781 0-5.843 0c-.126 0-.126.125-.126.219zm0 0"/></symbol><symbol overflow="visible" id="l"><path d="M-4.39 2.36c-.391.124-1.157.437-1.157 1.109 0 .75.906 1.312 2.297 1.312h2.86v-.39h-.75v-4h.75V0a40.27 40.27 0 01-1.25.031C-1.673.031-2.704.016-2.89 0v.39h.75v1.844h-.97c-.14 0-.437 0-.718-.234-.25-.188-.25-.36-.25-.86 0-.562 0-1.218-1.61-1.218-.828 0-.937.61-.937.765 0 .172.125.172.219.172.093 0 .203 0 .218-.156.032-.375.282-.469.438-.469.453 0 .516.454.578 1 .078.47.125.891.781 1.125zm1.234.187h1.015V4.39h-1.046c-1.126 0-1.22-.47-1.22-.922 0-.438.095-.922 1.25-.922zm0 0"/></symbol><symbol overflow="visible" id="m"><path d="M-5.594 1.875h.438C-4.97.875-4.672.391-3.47.391h1.281v1.875h-.468c-.594 0-.797-.172-.797-.782h-.438v1.938h.438c0-.61.203-.781.797-.781h.469v1.703h-1.22c-.968 0-1.374-.282-1.5-1.282h-.452l.25 1.672h4.718v-.39h-.75V.39h.75V0h-4.843zm0 0"/></symbol><symbol overflow="visible" id="n"><path d="M-2.281 4.688c.094.093.094.093.25.093h1.64v-.39h-.75V.562c0-.109 0-.109.016-.125.063-.046.422-.046.5-.046h.234V0c-.093 0-.734.031-1 .031-.265 0-.937-.031-.984-.031v.39h.234c.094 0 .235 0 .344.016.156.016.172.016.172.156v3.485L-5.359.078C-5.422 0-5.453 0-5.594 0c-.203 0-.234.031-.234.25v3.969c0 .11-.016.11-.031.125-.063.047-.407.047-.485.047h-.234v.39c.094 0 .719-.031.984-.031.266 0 .938.031 1 .031v-.39h-.234c-.11 0-.25 0-.344-.016-.172-.016-.172-.016-.172-.156V1.422zm0 0"/></symbol><symbol overflow="visible" id="o"><path d="M20.688-37.484c0-1.735-.125-1.735-2.032-1.735C14.234-35.39 7.594-35.39 6.281-35.39h-1.14v2.578h1.14c2.094 0 5.25-.359 7.64-1.14v31.375H5.626V0c2.5-.125 8.781-.125 11.594-.125 2.812 0 9.14 0 11.656.125v-2.578h-8.188zm0 0"/></symbol><symbol overflow="visible" id="p"><path d="M15.61-19.781c6.687 0 6.687 6.203 6.687 9.078 0 2.687 0 9.031-6.453 9.031-1.25 0-5.203-.187-8.078-2.219 2.578-.53 3.468-2.39 3.468-4.187 0-2.438-1.734-4.172-4.187-4.172-2.5 0-4.234 1.734-4.234 4.234C2.813-2.516 8.78.72 16.14.72 26 .719 30.734-4.72 30.734-10.703c0-2.922-1.5-8.61-10.765-10.219 5.265-1.61 8.906-5.328 8.906-10.047 0-4.484-4.313-8.25-12.61-8.25-6.703 0-11.609 3.532-11.609 8.375 0 2.985 2.344 3.938 3.89 3.938 1.735 0 3.829-1.125 3.829-3.875 0-1.375-.594-3.407-3.406-3.828 2.515-2.453 6.578-2.453 6.937-2.453 5.313 0 5.313 4.124 5.313 5.921 0 1.782-.235 4.532-2.157 6.985-1.546 2.031-3.093 2.156-5.375 2.281-.718.063-1.906.11-2.156.234-.36.172-.36.594-.36.844 0 1.016.36 1.016 1.563 1.016zm0 0"/></symbol><clipPath id="a"><path d="M0 0h153.145v238.184H0zm0 0"/></clipPath><clipPath id="h"><path d="M0 36h153.145v166H0zm0 0"/></clipPath></defs><g clip-path="url(#a)"><path d="M0 238.184V-.004h153.148v238.188zm0 0" fill="#fefefe"/></g><path d="M5.707 232.477V5.703h141.734v226.774zm0 0" fill="none" stroke-width="2.835" stroke="#3d8922" stroke-miterlimit="10"/><g fill="#3d8922"><use xlink:href="#b" x="15.696" y="33.854"/><use xlink:href="#c" x="27.319" y="33.854"/></g><g fill="#3d8922"><use xlink:href="#d" x="42.625" y="25.35"/><use xlink:href="#e" x="49.679" y="25.35"/><use xlink:href="#f" x="56.373" y="25.35"/><use xlink:href="#f" x="62.262" y="25.35"/><use xlink:href="#g" x="68.151" y="25.35"/></g><g clip-path="url(#h)"><path d="M34.055 82.238v73.703a5.667 5.667 0 005.668 5.668h73.703a5.667 5.667 0 005.668-5.668V82.238a5.67 5.67 0 00-5.668-5.668H39.723a5.67 5.67 0 00-5.668 5.668zm0 0" fill="none" stroke-width="2.835" stroke="#3d8922" stroke-miterlimit="10"/></g><g fill="#3d8922"><use xlink:href="#i" x="137.45" y="204.331"/><use xlink:href="#j" x="125.827" y="204.331"/></g><g fill="#3d8922"><use xlink:href="#k" x="110.521" y="212.835"/><use xlink:href="#l" x="103.467" y="212.835"/><use xlink:href="#m" x="96.773" y="212.835"/><use xlink:href="#m" x="90.884" y="212.835"/><use xlink:href="#n" x="84.995" y="212.835"/></g><g fill="#3d8922"><use xlink:href="#o" x="44.042" y="140.153"/><use xlink:href="#p" x="77.666" y="140.153"/></g></svg>