<svg xmlns="http://www.w3.org/2000/svg" xmlns:xlink="http://www.w3.org/1999/xlink" width="204.195" height="317.58" viewBox="0 0 153.146 238.185"><defs><symbol overflow="visible" id="b"><path d="M7.14-12.953c0-.594-.03-.594-.702-.594-1.516 1.313-3.813 1.313-4.266 1.313h-.39v.89h.39c.719 0 1.812-.125 2.64-.39V-.891H1.938V0c.875-.047 3.047-.047 4.016-.047.969 0 3.156 0 4.031.047v-.89H7.141zm0 0"/></symbol><symbol overflow="visible" id="c"><path d="M5.39-6.844c2.313 0 2.313 2.157 2.313 3.14 0 .938 0 3.126-2.234 3.126-.422 0-1.797-.063-2.782-.766.891-.187 1.204-.828 1.204-1.437 0-.86-.61-1.453-1.454-1.453-.874 0-1.468.593-1.468 1.468C.969-.875 3.03.25 5.579.25c3.405 0 5.046-1.875 5.046-3.953 0-1-.531-2.969-3.719-3.531 1.813-.547 3.078-1.829 3.078-3.47 0-1.546-1.5-2.843-4.359-2.843-2.313 0-4.016 1.219-4.016 2.89 0 1.032.813 1.36 1.344 1.36.594 0 1.328-.39 1.328-1.344 0-.468-.218-1.171-1.187-1.312.875-.86 2.281-.86 2.406-.86 1.828 0 1.828 1.438 1.828 2.047 0 .625-.078 1.579-.734 2.422-.547.703-1.078.75-1.86.781-.25.016-.671.047-.75.079-.125.062-.125.218-.125.296 0 .344.125.344.547.344zm0 0"/></symbol><symbol overflow="visible" id="d"><path d="M5.734-4.281c.063-.078.063-.078.235-.094.093-.016.234-.016.343-.016h.204v-.39c-.282.015-.563.031-.844.031-.25 0-.89-.031-1-.031v.39c.156 0 .312 0 .484.047l-1.468 1.86-1.5-1.907h.53v-.39c-.343.031-.968.031-1.327.031-.438 0-1.079-.031-1.172-.031v.39h.703l1.937 2.485v1.515h-.734V0a38.241 38.241 0 011.234-.031c.266 0 1.125.031 1.25.031v-.39h-.734v-1.516zm0 0"/></symbol><symbol overflow="visible" id="e"><path d="M5.594-1.875h-.438c-.187 1-.484 1.484-1.687 1.484H2.188v-1.875h.468c.594 0 .797.172.797.782h.438v-1.938h-.438c0 .61-.203.781-.797.781h-.469v-1.703h1.22c.968 0 1.374.282 1.5 1.282h.452l-.25-1.672H.391v.39h.75V-.39H.39V0h4.843zm0 0"/></symbol><symbol overflow="visible" id="f"><path d="M4.984-1.875h-.437C4.469-1.25 4.25-.391 3.016-.391h-.829v-4h.938v-.39c-.156.015-.531.015-.688.015-.25 0-.5.016-.75.016-.437 0-.906 0-1.296-.031v.39h.75v4H.39V0H4.75zm0 0"/></symbol><symbol overflow="visible" id="g"><path d="M6.219-2.36c0-1.374-.969-2.5-2.844-2.5-1.922 0-2.86 1.157-2.86 2.5C.516-1.015 1.5.079 3.36.079c1.922 0 2.86-1.11 2.86-2.437zM3.359-.28c-.421 0-.984-.156-1.359-.672-.313-.469-.344-1.125-.344-1.516 0-.469.047-1.031.39-1.469.298-.374.782-.578 1.313-.578 1.72 0 1.72 1.625 1.72 2.047 0 .531-.063 1.063-.329 1.5-.328.485-.875.688-1.39.688zm0 0"/></symbol><symbol overflow="visible" id="h"><path d="M8.328-4.266c.047-.125.14-.125.5-.125h.156v-.39c-.265.015-.515.031-.765.031-.235 0-1-.031-1.031-.031v.39h.125c.046 0 .562 0 .562.063a.165.165 0 01-.031.078L6.578-1.156 5.234-4.391h.641v-.39c-.375.031-.89.031-1.266.031-.28 0-1-.031-1.062-.031v.39h.594l.234.532L3.25-1.156 1.922-4.391h.64v-.39c-.109 0-1.03.031-1.265.031-.266 0-1-.031-1.063-.031v.39h.61L2.609-.125c.063.172.094.203.344.203.203 0 .266 0 .344-.203l1.312-3.156L5.906-.125c.094.203.188.203.36.203.234 0 .265-.031.343-.203zm0 0"/></symbol><symbol overflow="visible" id="j"><path d="M-7.14 12.953c0 .594.03.594.702.594 1.516-1.313 3.813-1.313 4.266-1.313h.39v-.89h-.39c-.719 0-1.812.125-2.64.39V.891h2.875V0c-.875.047-3.047.047-4.016.047-.969 0-3.156 0-4.031-.047v.89h2.843zm0 0"/></symbol><symbol overflow="visible" id="k"><path d="M-5.39 6.844c-2.313 0-2.313-2.157-2.313-3.14 0-.938 0-3.126 2.234-3.126.422 0 1.797.063 2.782.766-.891.187-1.204.828-1.204 1.437 0 .86.61 1.453 1.454 1.453.874 0 1.468-.593 1.468-1.468C-.969.875-3.03-.25-5.579-.25c-3.405 0-5.046 1.875-5.046 3.953 0 1 .531 2.969 3.719 3.531-1.813.547-3.078 1.829-3.078 3.47 0 1.546 1.5 2.843 4.359 2.843 2.313 0 4.016-1.219 4.016-2.89 0-1.032-.813-1.36-1.344-1.36-.594 0-1.328.39-1.328 1.344 0 .468.218 1.171 1.187 1.312-.875.86-2.281.86-2.406.86-1.828 0-1.828-1.438-1.828-2.047 0-.625.078-1.579.734-2.422.547-.703 1.078-.75 1.86-.781.25-.016.671-.047.75-.079.125-.062.125-.218.125-.296 0-.344-.125-.344-.547-.344zm0 0"/></symbol><symbol overflow="visible" id="l"><path d="M-5.734 4.281c-.063.078-.063.078-.235.094-.093.016-.234.016-.343.016h-.204v.39c.282-.015.563-.031.844-.031.25 0 .89.031 1 .031v-.39c-.156 0-.312 0-.484-.047l1.468-1.86 1.5 1.907h-.53v.39c.343-.031.968-.031 1.327-.031.438 0 1.079.031 1.172.031v-.39h-.703l-1.937-2.485V.391h.734V0c-.156.016-1.172.031-1.234.031C-3.625.031-4.484 0-4.61 0v.39h.734v1.516zm0 0"/></symbol><symbol overflow="visible" id="m"><path d="M-5.594 1.875h.438C-4.97.875-4.672.391-3.47.391h1.281v1.875h-.468c-.594 0-.797-.172-.797-.782h-.438v1.938h.438c0-.61.203-.781.797-.781h.469v1.703h-1.22c-.968 0-1.374-.282-1.5-1.282h-.452l.25 1.672h4.718v-.39h-.75V.39h.75V0h-4.843zm0 0"/></symbol><symbol overflow="visible" id="n"><path d="M-4.984 1.875h.437C-4.469 1.25-4.25.391-3.016.391h.829v4h-.938v.39c.156-.015.531-.015.688-.015.25 0 .5-.016.75-.016.437 0 .906 0 1.296.031v-.39h-.75v-4h.75V0H-4.75zm0 0"/></symbol><symbol overflow="visible" id="o"><path d="M-6.219 2.36c0 1.374.969 2.5 2.844 2.5 1.922 0 2.86-1.157 2.86-2.5 0-1.344-.985-2.438-2.844-2.438-1.922 0-2.86 1.11-2.86 2.437zM-3.359.28c.421 0 .984.156 1.359.672.313.469.344 1.125.344 1.516 0 .469-.047 1.031-.39 1.469-.298.374-.782.578-1.313.578-1.72 0-1.72-1.625-1.72-2.047 0-.531.063-1.063.329-1.5.328-.485.875-.688 1.39-.688zm0 0"/></symbol><symbol overflow="visible" id="p"><path d="M-8.328 4.266c-.047.125-.14.125-.5.125h-.156v.39c.265-.015.515-.031.765-.031.235 0 1 .031 1.031.031v-.39h-.125c-.046 0-.562 0-.562-.063 0-.016.016-.062.031-.078l1.266-3.094 1.344 3.235h-.641v.39c.375-.031.89-.031 1.266-.031.28 0 1 .031 1.062.031v-.39h-.594l-.234-.532 1.125-2.703 1.328 3.235h-.64v.39c.109 0 1.03-.031 1.265-.031.266 0 1 .031 1.063.031v-.39h-.61L-2.609.125c-.063-.172-.094-.203-.344-.203-.203 0-.266 0-.344.203l-1.312 3.156L-5.906.125c-.094-.203-.188-.203-.36-.203-.234 0-.265.031-.343.203zm0 0"/></symbol><symbol overflow="visible" id="q"><path d="M20.688-37.484c0-1.735-.125-1.735-2.032-1.735C14.234-35.39 7.594-35.39 6.281-35.39h-1.14v2.578h1.14c2.094 0 5.25-.359 7.64-1.14v31.375H5.626V0c2.5-.125 8.781-.125 11.594-.125 2.812 0 9.14 0 11.656.125v-2.578h-8.188zm0 0"/></symbol><symbol overflow="visible" id="r"><path d="M15.61-19.781c6.687 0 6.687 6.203 6.687 9.078 0 2.687 0 9.031-6.453 9.031-1.25 0-5.203-.187-8.078-2.219 2.578-.53 3.468-2.39 3.468-4.187 0-2.438-1.734-4.172-4.187-4.172-2.5 0-4.234 1.734-4.234 4.234C2.813-2.516 8.78.72 16.14.72 26 .719 30.734-4.72 30.734-10.703c0-2.922-1.5-8.61-10.765-10.219 5.265-1.61 8.906-5.328 8.906-10.047 0-4.484-4.313-8.25-12.61-8.25-6.703 0-11.609 3.532-11.609 8.375 0 2.985 2.344 3.938 3.89 3.938 1.735 0 3.829-1.125 3.829-3.875 0-1.375-.594-3.407-3.406-3.828 2.515-2.453 6.578-2.453 6.937-2.453 5.313 0 5.313 4.124 5.313 5.921 0 1.782-.235 4.532-2.157 6.985-1.546 2.031-3.093 2.156-5.375 2.281-.718.063-1.906.11-2.156.234-.36.172-.36.594-.36.844 0 1.016.36 1.016 1.563 1.016zm0 0"/></symbol><clipPath id="a"><path d="M0 0h153.145v238.184H0zm0 0"/></clipPath><clipPath id="i"><path d="M0 36h153.145v166H0zm0 0"/></clipPath></defs><g clip-path="url(#a)"><path d="M0 238.184V-.004h153.148v238.188zm0 0" fill="#fefefe"/></g><path d="M5.707 232.477V5.703h141.734v226.774zm0 0" fill="none" stroke-width="2.835" stroke="#ff8c00" stroke-miterlimit="10"/><g fill="#ff8c00"><use xlink:href="#b" x="15.696" y="33.854"/><use xlink:href="#c" x="27.319" y="33.854"/></g><g fill="#ff8c00"><use xlink:href="#d" x="42.625" y="25.35"/><use xlink:href="#e" x="49.375" y="25.35"/><use xlink:href="#f" x="55.264" y="25.35"/><use xlink:href="#f" x="60.657" y="25.35"/><use xlink:href="#g" x="66.051" y="25.35"/></g><use xlink:href="#h" x="72.552" y="25.35" fill="#ff8c00"/><g clip-path="url(#i)"><path d="M34.055 82.238v73.703a5.667 5.667 0 005.668 5.668h73.703a5.667 5.667 0 005.668-5.668V82.238a5.67 5.67 0 00-5.668-5.668H39.723a5.67 5.67 0 00-5.668 5.668zm0 0" fill="none" stroke-width="2.835" stroke="#ff8c00" stroke-miterlimit="10"/></g><g fill="#ff8c00"><use xlink:href="#j" x="137.45" y="204.331"/><use xlink:href="#k" x="125.827" y="204.331"/></g><g fill="#ff8c00"><use xlink:href="#l" x="110.521" y="212.835"/><use xlink:href="#m" x="103.771" y="212.835"/><use xlink:href="#n" x="97.882" y="212.835"/><use xlink:href="#n" x="92.489" y="212.835"/><use xlink:href="#o" x="87.095" y="212.835"/></g><use xlink:href="#p" x="80.594" y="212.835" fill="#ff8c00"/><g fill="#ff8c00"><use xlink:href="#q" x="44.042" y="140.153"/><use xlink:href="#r" x="77.666" y="140.153"/></g></svg>