<svg xmlns="http://www.w3.org/2000/svg" xmlns:xlink="http://www.w3.org/1999/xlink" width="204.195" height="317.58" viewBox="0 0 153.146 238.185"><defs><symbol overflow="visible" id="b"><path d="M7.14-12.953c0-.594-.03-.594-.702-.594-1.516 1.313-3.813 1.313-4.266 1.313h-.39v.89h.39c.719 0 1.812-.125 2.64-.39V-.891H1.938V0c.875-.047 3.047-.047 4.016-.047.969 0 3.156 0 4.031.047v-.89H7.141zm0 0"/></symbol><symbol overflow="visible" id="c"><path d="M8.938-3.25h2.015v-.875H8.938V-13c0-.516-.016-.594-.532-.594-.375 0-.406 0-.656.313L.64-4.125v.875H6.5v2.36H4.25V0c.61-.047 2.656-.047 3.39-.047.704 0 2.75 0 3.313.047v-.89H8.938zm-2.25-7.453v6.578H1.593zm0 0"/></symbol><symbol overflow="visible" id="d"><path d="M4.39-2.36c.391-.124 1.157-.437 1.157-1.109 0-.75-.906-1.312-2.297-1.312H.39v.39h.75v4H.39V0a40.27 40.27 0 011.25-.031c.032 0 1.063.015 1.25.031v-.39h-.75v-1.844h.97c.14 0 .437 0 .718.234.25.188.25.36.25.86 0 .562 0 1.218 1.61 1.218.828 0 .937-.61.937-.765 0-.172-.125-.172-.219-.172-.093 0-.203 0-.218.156-.032.375-.282.469-.438.469-.453 0-.516-.454-.578-1-.078-.47-.125-.891-.781-1.125zm-1.234-.187H2.141V-4.39h1.046c1.126 0 1.22.47 1.22.922 0 .438-.095.922-1.25.922zm0 0"/></symbol><symbol overflow="visible" id="e"><path d="M5.594-1.875h-.438c-.187 1-.484 1.484-1.687 1.484H2.188v-1.875h.468c.594 0 .797.172.797.782h.438v-1.938h-.438c0 .61-.203.781-.797.781h-.469v-1.703h1.22c.968 0 1.374.282 1.5 1.282h.452l-.25-1.672H.391v.39h.75V-.39H.39V0h4.843zm0 0"/></symbol><symbol overflow="visible" id="f"><path d="M.39-4.781v.39h.75v4H.39V0h3.282c1.531 0 2.656-.89 2.656-2.36 0-1.453-1.078-2.421-2.672-2.421zm1.75 4.39v-4h1.22c1.89 0 1.89 1.407 1.89 2.032s0 1.968-1.875 1.968zm0 0"/></symbol><symbol overflow="visible" id="h"><path d="M-7.14 12.953c0 .594.03.594.702.594 1.516-1.313 3.813-1.313 4.266-1.313h.39v-.89h-.39c-.719 0-1.812.125-2.64.39V.891h2.875V0c-.875.047-3.047.047-4.016.047-.969 0-3.156 0-4.031-.047v.89h2.843zm0 0"/></symbol><symbol overflow="visible" id="i"><path d="M-8.938 3.25h-2.015v.875h2.015V13c0 .516.016.594.532.594.375 0 .406 0 .656-.313l7.11-9.156V3.25H-6.5V.89h2.25V0c-.61.047-2.656.047-3.39.047-.704 0-2.75 0-3.313-.047v.89h2.015zm2.25 7.453V4.125h5.094zm0 0"/></symbol><symbol overflow="visible" id="j"><path d="M-4.39 2.36c-.391.124-1.157.437-1.157 1.109 0 .75.906 1.312 2.297 1.312h2.86v-.39h-.75v-4h.75V0a40.27 40.27 0 01-1.25.031C-1.673.031-2.704.016-2.89 0v.39h.75v1.844h-.97c-.14 0-.437 0-.718-.234-.25-.188-.25-.36-.25-.86 0-.562 0-1.218-1.61-1.218-.828 0-.937.61-.937.765 0 .172.125.172.219.172.093 0 .203 0 .218-.156.032-.375.282-.469.438-.469.453 0 .516.454.578 1 .078.47.125.891.781 1.125zm1.234.187h1.015V4.39h-1.046c-1.126 0-1.22-.47-1.22-.922 0-.438.095-.922 1.25-.922zm0 0"/></symbol><symbol overflow="visible" id="k"><path d="M-5.594 1.875h.438C-4.97.875-4.672.391-3.47.391h1.281v1.875h-.468c-.594 0-.797-.172-.797-.782h-.438v1.938h.438c0-.61.203-.781.797-.781h.469v1.703h-1.22c-.968 0-1.374-.282-1.5-1.282h-.452l.25 1.672h4.718v-.39h-.75V.39h.75V0h-4.843zm0 0"/></symbol><symbol overflow="visible" id="l"><path d="M-.39 4.781v-.39h-.75v-4h.75V0h-3.282c-1.531 0-2.656.89-2.656 2.36 0 1.453 1.078 2.421 2.672 2.421zM-2.14.391v4h-1.22c-1.89 0-1.89-1.407-1.89-2.032s0-1.968 1.875-1.968zm0 0"/></symbol><symbol overflow="visible" id="m"><path d="M20.688-37.484c0-1.735-.125-1.735-2.032-1.735C14.234-35.39 7.594-35.39 6.281-35.39h-1.14v2.578h1.14c2.094 0 5.25-.359 7.64-1.14v31.375H5.626V0c2.5-.125 8.781-.125 11.594-.125 2.812 0 9.14 0 11.656.125v-2.578h-8.188zm0 0"/></symbol><symbol overflow="visible" id="n"><path d="M25.89-9.39h5.797v-2.563h-5.796V-37.61c0-1.485-.063-1.735-1.563-1.735-1.078 0-1.187 0-1.906.907L1.859-11.953v2.562h16.97v6.813h-6.517V0c1.735-.125 7.657-.125 9.813-.125 2.031 0 7.938 0 9.563.125v-2.578H25.89zM19.376-30.97v19.016H4.609zm0 0"/></symbol><clipPath id="a"><path d="M0 0h153.145v238.184H0zm0 0"/></clipPath><clipPath id="g"><path d="M0 36h153.145v166H0zm0 0"/></clipPath></defs><g clip-path="url(#a)"><path d="M0 238.184V-.004h153.148v238.188zm0 0" fill="#fefefe"/></g><path d="M5.707 232.477V5.703h141.734v226.774zm0 0" fill="none" stroke-width="2.835" stroke="#d31717" stroke-miterlimit="10"/><g fill="#d31717"><use xlink:href="#b" x="15.696" y="33.854"/><use xlink:href="#c" x="27.319" y="33.854"/></g><g fill="#d31717"><use xlink:href="#d" x="42.625" y="25.35"/><use xlink:href="#e" x="49.319" y="25.35"/><use xlink:href="#f" x="55.208" y="25.35"/></g><g clip-path="url(#g)"><path d="M34.055 82.238v73.703a5.667 5.667 0 005.668 5.668h73.703a5.667 5.667 0 005.668-5.668V82.238a5.67 5.67 0 00-5.668-5.668H39.723a5.67 5.67 0 00-5.668 5.668zm0 0" fill="none" stroke-width="2.835" stroke="#d31717" stroke-miterlimit="10"/></g><g fill="#d31717"><use xlink:href="#h" x="137.45" y="204.331"/><use xlink:href="#i" x="125.827" y="204.331"/></g><g fill="#d31717"><use xlink:href="#j" x="110.521" y="212.835"/><use xlink:href="#k" x="103.827" y="212.835"/><use xlink:href="#l" x="97.938" y="212.835"/></g><g fill="#d31717"><use xlink:href="#m" x="44.042" y="140.153"/><use xlink:href="#n" x="77.666" y="140.153"/></g></svg>