<svg xmlns="http://www.w3.org/2000/svg" xmlns:xlink="http://www.w3.org/1999/xlink" width="204.195" height="317.58" viewBox="0 0 153.146 238.185"><defs><symbol overflow="visible" id="b"><path d="M10.438-4.438h-.876C9.5-4 9.36-2.78 9.047-2.577c-.172.14-1.781.14-2.078.14H3.766c.78-.656 2.656-2.234 2.968-2.453 2.297-1.718 3.704-2.765 3.704-4.75 0-2.437-2.22-3.906-4.938-3.906-2.344 0-4.344 1.313-4.344 3.281 0 1.094.89 1.407 1.36 1.407.64 0 1.39-.438 1.39-1.391 0-.86-.64-1.297-1.281-1.375.828-.953 1.922-1.031 2.36-1.031 1.89 0 2.796 1.547 2.796 3.031 0 1.61-1.093 3.094-1.937 3.984L1.359-.953c-.203.187-.203.234-.203.61V0h8.672zm0 0"/></symbol><symbol overflow="visible" id="c"><path d="M5.969-1.531h.61v-.39c-.095.015-.75.03-1.173.03h-.86c-.202 0-.546-.015-.75-.03v.39h1.11v.656c0 .172 0 .563-1.031.563-.328 0-1.094-.016-1.64-.485-.329-.281-.579-.719-.579-1.594 0-.703.157-1.218.532-1.562.453-.438 1.156-.516 1.578-.516.78 0 1.53.469 1.703 1.375.015.14.031.156.218.156h.063c.188 0 .219-.015.219-.218v-1.485c0-.14 0-.218-.157-.218-.093 0-.109 0-.171.062l-.47.406c-.702-.468-1.343-.468-1.562-.468C1.594-4.86.516-3.734.516-2.391c0 1.125.812 2.47 3.156 2.47.375 0 1.172-.017 1.531-.376.156.11.578.297.64.297.126 0 .126-.125.126-.219zm0 0"/></symbol><symbol overflow="visible" id="d"><path d="M4.39-2.36c.391-.124 1.157-.437 1.157-1.109 0-.75-.906-1.312-2.297-1.312H.39v.39h.75v4H.39V0a40.27 40.27 0 011.25-.031c.032 0 1.063.015 1.25.031v-.39h-.75v-1.844h.97c.14 0 .437 0 .718.234.25.188.25.36.25.86 0 .562 0 1.218 1.61 1.218.828 0 .937-.61.937-.765 0-.172-.125-.172-.219-.172-.093 0-.203 0-.218.156-.032.375-.282.469-.438.469-.453 0-.516-.454-.578-1-.078-.47-.125-.891-.781-1.125zm-1.234-.187H2.141V-4.39h1.046c1.126 0 1.22.47 1.22.922 0 .438-.095.922-1.25.922zm0 0"/></symbol><symbol overflow="visible" id="e"><path d="M5.594-1.875h-.438c-.187 1-.484 1.484-1.687 1.484H2.188v-1.875h.468c.594 0 .797.172.797.782h.438v-1.938h-.438c0 .61-.203.781-.797.781h-.469v-1.703h1.22c.968 0 1.374.282 1.5 1.282h.452l-.25-1.672H.391v.39h.75V-.39H.39V0h4.843zm0 0"/></symbol><symbol overflow="visible" id="f"><path d="M2.281-4.688c-.094-.093-.094-.093-.25-.093H.391v.39h.75v3.829c0 .109 0 .109-.016.125-.063.046-.422.046-.5.046H.391V0c.093 0 .734-.031 1-.031.265 0 .937.031.984.031v-.39h-.234c-.094 0-.235 0-.344-.016-.156-.016-.172-.016-.172-.156v-3.485L5.359-.078C5.422 0 5.453 0 5.594 0c.203 0 .234-.031.234-.25v-3.969c0-.11.016-.11.031-.125.063-.047.407-.047.485-.047h.234v-.39c-.094 0-.719.031-.984.031-.266 0-.938-.031-1-.031v.39h.234c.11 0 .25 0 .344.016.172.016.172.016.172.156v2.797zm0 0"/></symbol><symbol overflow="visible" id="h"><path d="M-10.438 4.438h.876c.062-.438.203-1.657.515-1.86.172-.14 1.781-.14 2.078-.14h3.203c-.78.656-2.656 2.234-2.968 2.453-2.297 1.718-3.704 2.765-3.704 4.75 0 2.437 2.22 3.906 4.938 3.906 2.344 0 4.344-1.313 4.344-3.281 0-1.094-.89-1.407-1.36-1.407-.64 0-1.39.438-1.39 1.391 0 .86.64 1.297 1.281 1.375-.828.953-1.922 1.031-2.36 1.031-1.89 0-2.796-1.547-2.796-3.031 0-1.61 1.093-3.094 1.937-3.984L-1.359.953c.203-.187.203-.234.203-.61V0h-8.672zm0 0"/></symbol><symbol overflow="visible" id="i"><path d="M-5.969 1.531h-.61v.39c.095-.015.75-.03 1.173-.03h.86c.202 0 .546.015.75.03v-.39h-1.11V.875c0-.172 0-.563 1.031-.563.328 0 1.094.016 1.64.485.329.281.579.719.579 1.594 0 .703-.157 1.218-.532 1.562-.453.438-1.156.516-1.578.516-.78 0-1.53-.469-1.703-1.375-.015-.14-.031-.156-.218-.156h-.063c-.188 0-.219.015-.219.218v1.485c0 .14 0 .218.157.218.093 0 .109 0 .171-.062l.47-.406a2.714 2.714 0 001.562.468c2.015 0 3.093-1.125 3.093-2.468 0-1.125-.812-2.47-3.156-2.47-.375 0-1.172.017-1.531.376C-5.36.187-5.781 0-5.843 0c-.126 0-.126.125-.126.219zm0 0"/></symbol><symbol overflow="visible" id="j"><path d="M-4.39 2.36c-.391.124-1.157.437-1.157 1.109 0 .75.906 1.312 2.297 1.312h2.86v-.39h-.75v-4h.75V0a40.27 40.27 0 01-1.25.031C-1.673.031-2.704.016-2.89 0v.39h.75v1.844h-.97c-.14 0-.437 0-.718-.234-.25-.188-.25-.36-.25-.86 0-.562 0-1.218-1.61-1.218-.828 0-.937.61-.937.765 0 .172.125.172.219.172.093 0 .203 0 .218-.156.032-.375.282-.469.438-.469.453 0 .516.454.578 1 .078.47.125.891.781 1.125zm1.234.187h1.015V4.39h-1.046c-1.126 0-1.22-.47-1.22-.922 0-.438.095-.922 1.25-.922zm0 0"/></symbol><symbol overflow="visible" id="k"><path d="M-5.594 1.875h.438C-4.97.875-4.672.391-3.47.391h1.281v1.875h-.468c-.594 0-.797-.172-.797-.782h-.438v1.938h.438c0-.61.203-.781.797-.781h.469v1.703h-1.22c-.968 0-1.374-.282-1.5-1.282h-.452l.25 1.672h4.718v-.39h-.75V.39h.75V0h-4.843zm0 0"/></symbol><symbol overflow="visible" id="l"><path d="M-2.281 4.688c.094.093.094.093.25.093h1.64v-.39h-.75V.562c0-.109 0-.109.016-.125.063-.046.422-.046.5-.046h.234V0c-.093 0-.734.031-1 .031-.265 0-.937-.031-.984-.031v.39h.234c.094 0 .235 0 .344.016.156.016.172.016.172.156v3.485L-5.359.078C-5.422 0-5.453 0-5.594 0c-.203 0-.234.031-.234.25v3.969c0 .11-.016.11-.031.125-.063.047-.407.047-.485.047h-.234v.39c.094 0 .719-.031.984-.031.266 0 .938.031 1 .031v-.39h-.234c-.11 0-.25 0-.344-.016-.172-.016-.172-.016-.172-.156V1.422zm0 0"/></symbol><symbol overflow="visible" id="m"><path d="M30.188-12.86h-2.516c-.172 1.266-.594 4.782-1.485 5.391-.484.422-5.14.422-6.046.422h-9.266c2.281-1.922 7.719-6.469 8.61-7.125 6.64-4.953 10.703-8 10.703-13.75 0-7.047-6.391-11.297-14.282-11.297-6.765 0-12.562 3.828-12.562 9.5 0 3.172 2.578 4.078 3.953 4.078 1.844 0 4-1.265 4-4.015 0-2.5-1.844-3.766-3.703-4 2.39-2.75 5.562-2.985 6.812-2.985 5.5 0 8.125 4.485 8.125 8.782 0 4.672-3.156 8.968-5.61 11.547L3.954-2.75c-.61.531-.61.656-.61 1.734V0h25.11zm0 0"/></symbol><clipPath id="a"><path d="M0 0h153.145v238.184H0zm0 0"/></clipPath><clipPath id="g"><path d="M0 36h153.145v166H0zm0 0"/></clipPath></defs><g clip-path="url(#a)"><path d="M0 238.184V-.004h153.148v238.188zm0 0" fill="#fefefe"/></g><path d="M5.707 232.477V5.703h141.734v226.774zm0 0" fill="none" stroke-width="2.835" stroke="#3d8922" stroke-miterlimit="10"/><use xlink:href="#b" x="25.617" y="33.854" fill="#3d8922"/><g fill="#3d8922"><use xlink:href="#c" x="42.625" y="25.35"/><use xlink:href="#d" x="49.679" y="25.35"/><use xlink:href="#e" x="56.373" y="25.35"/><use xlink:href="#e" x="62.262" y="25.35"/><use xlink:href="#f" x="68.151" y="25.35"/></g><g clip-path="url(#g)"><path d="M34.055 82.238v73.703a5.667 5.667 0 005.668 5.668h73.703a5.667 5.667 0 005.668-5.668V82.238a5.67 5.67 0 00-5.668-5.668H39.723a5.67 5.67 0 00-5.668 5.668zm0 0" fill="none" stroke-width="2.835" stroke="#3d8922" stroke-miterlimit="10"/></g><use xlink:href="#h" x="127.529" y="204.331" fill="#3d8922"/><g fill="#3d8922"><use xlink:href="#i" x="110.521" y="212.835"/><use xlink:href="#j" x="103.467" y="212.835"/><use xlink:href="#k" x="96.773" y="212.835"/><use xlink:href="#k" x="90.884" y="212.835"/><use xlink:href="#l" x="84.995" y="212.835"/></g><use xlink:href="#m" x="61.05" y="140.153" fill="#3d8922"/></svg>