<svg xmlns="http://www.w3.org/2000/svg" xmlns:xlink="http://www.w3.org/1999/xlink" width="204.195" height="317.58" viewBox="0 0 153.146 238.185"><defs><symbol overflow="visible" id="b"><path d="M3.188-10.719a6.81 6.81 0 001.562.156c.5 0 1.672 0 3.063-.843.64-.39 1.703-1.313 1.703-1.797 0-.094 0-.344-.235-.344-.031 0-.062 0-.281.094a8.883 8.883 0 01-3.11.562 8.712 8.712 0 01-3.14-.578c-.14-.047-.203-.078-.266-.078-.25 0-.25.203-.25.547v6.016c0 .39 0 .625.407.625.203 0 .25-.016.421-.235.25-.281.985-1.187 2.735-1.187 1.906 0 1.906 1.937 1.906 3.562 0 1.485 0 3.64-2.531 3.64-.766 0-2.078-.296-2.781-1.468 1.093 0 1.375-.828 1.375-1.281 0-.735-.547-1.297-1.313-1.297-.61 0-1.297.375-1.297 1.344C1.156-1.484 2.781.25 5.25.25c3.172 0 5.188-1.844 5.188-4.406 0-2.516-1.72-4.313-4.547-4.313-.829 0-1.829.172-2.704.828zm0 0"/></symbol><symbol overflow="visible" id="c"><path d="M4.39-2.36c.391-.124 1.157-.437 1.157-1.109 0-.75-.906-1.312-2.297-1.312H.39v.39h.75v4H.39V0a40.27 40.27 0 011.25-.031c.032 0 1.063.015 1.25.031v-.39h-.75v-1.844h.97c.14 0 .437 0 .718.234.25.188.25.36.25.86 0 .562 0 1.218 1.61 1.218.828 0 .937-.61.937-.765 0-.172-.125-.172-.219-.172-.093 0-.203 0-.218.156-.032.375-.282.469-.438.469-.453 0-.516-.454-.578-1-.078-.47-.125-.891-.781-1.125zm-1.234-.187H2.141V-4.39h1.046c1.126 0 1.22.47 1.22.922 0 .438-.095.922-1.25.922zm0 0"/></symbol><symbol overflow="visible" id="d"><path d="M5.594-1.875h-.438c-.187 1-.484 1.484-1.687 1.484H2.188v-1.875h.468c.594 0 .797.172.797.782h.438v-1.938h-.438c0 .61-.203.781-.797.781h-.469v-1.703h1.22c.968 0 1.374.282 1.5 1.282h.452l-.25-1.672H.391v.39h.75V-.39H.39V0h4.843zm0 0"/></symbol><symbol overflow="visible" id="e"><path d="M.39-4.781v.39h.75v4H.39V0h3.282c1.531 0 2.656-.89 2.656-2.36 0-1.453-1.078-2.421-2.672-2.421zm1.75 4.39v-4h1.22c1.89 0 1.89 1.407 1.89 2.032s0 1.968-1.875 1.968zm0 0"/></symbol><symbol overflow="visible" id="g"><path d="M-3.188 10.719c-.703-.156-1.25-.156-1.562-.156-.5 0-1.672 0-3.063.843-.64.39-1.703 1.313-1.703 1.797 0 .094 0 .344.235.344.031 0 .062 0 .281-.094a8.883 8.883 0 013.11-.562c1.187 0 2.171.218 3.14.578.14.047.203.078.266.078.25 0 .25-.203.25-.547V6.984c0-.39 0-.625-.407-.625-.203 0-.25.016-.421.235-.25.281-.985 1.187-2.735 1.187-1.906 0-1.906-1.937-1.906-3.562 0-1.485 0-3.64 2.531-3.64.766 0 2.078.296 2.781 1.468-1.093 0-1.375.828-1.375 1.281 0 .735.547 1.297 1.313 1.297.61 0 1.297-.375 1.297-1.344 0-1.797-1.625-3.531-4.094-3.531-3.172 0-5.188 1.844-5.188 4.406 0 2.516 1.72 4.313 4.547 4.313.829 0 1.829-.172 2.704-.828zm0 0"/></symbol><symbol overflow="visible" id="h"><path d="M-4.39 2.36c-.391.124-1.157.437-1.157 1.109 0 .75.906 1.312 2.297 1.312h2.86v-.39h-.75v-4h.75V0a40.27 40.27 0 01-1.25.031C-1.673.031-2.704.016-2.89 0v.39h.75v1.844h-.97c-.14 0-.437 0-.718-.234-.25-.188-.25-.36-.25-.86 0-.562 0-1.218-1.61-1.218-.828 0-.937.61-.937.765 0 .172.125.172.219.172.093 0 .203 0 .218-.156.032-.375.282-.469.438-.469.453 0 .516.454.578 1 .078.47.125.891.781 1.125zm1.234.187h1.015V4.39h-1.046c-1.126 0-1.22-.47-1.22-.922 0-.438.095-.922 1.25-.922zm0 0"/></symbol><symbol overflow="visible" id="i"><path d="M-5.594 1.875h.438C-4.97.875-4.672.391-3.47.391h1.281v1.875h-.468c-.594 0-.797-.172-.797-.782h-.438v1.938h.438c0-.61.203-.781.797-.781h.469v1.703h-1.22c-.968 0-1.374-.282-1.5-1.282h-.452l.25 1.672h4.718v-.39h-.75V.39h.75V0h-4.843zm0 0"/></symbol><symbol overflow="visible" id="j"><path d="M-.39 4.781v-.39h-.75v-4h.75V0h-3.282c-1.531 0-2.656.89-2.656 2.36 0 1.453 1.078 2.421 2.672 2.421zM-2.14.391v4h-1.22c-1.89 0-1.89-1.407-1.89-2.032s0-1.968 1.875-1.968zm0 0"/></symbol><symbol overflow="visible" id="k"><path d="M9.203-31.031c2.031.484 3.656.484 4.547.484 1.438 0 4.844 0 8.844-2.453 1.86-1.14 4.968-3.828 4.968-5.203 0-.297 0-1.016-.718-1.016-.063 0-.188 0-.782.297-2.75.953-5.671 1.625-9.03 1.625-3.407 0-6.266-.672-9.079-1.687-.422-.11-.594-.235-.781-.235-.719 0-.719.594-.719 1.61v17.406c0 1.14 0 1.797 1.203 1.797.594 0 .719-.063 1.188-.657.719-.843 2.875-3.468 7.953-3.468 5.5 0 5.5 5.61 5.5 10.328 0 4.312 0 10.531-7.344 10.531-2.219 0-5.984-.844-8.015-4.25 3.171 0 3.937-2.39 3.937-3.703 0-2.156-1.547-3.766-3.766-3.766-1.78 0-3.765 1.079-3.765 3.891C3.344-4.297 8.078.719 15.188.719c9.203 0 15-5.328 15-12.735 0-7.296-4.954-12.5-13.157-12.5-2.39 0-5.25.485-7.828 2.391zm0 0"/></symbol><clipPath id="a"><path d="M0 0h153.145v238.184H0zm0 0"/></clipPath><clipPath id="f"><path d="M0 36h153.145v166H0zm0 0"/></clipPath></defs><g clip-path="url(#a)"><path d="M0 238.184V-.004h153.148v238.188zm0 0" fill="#fefefe"/></g><path d="M5.707 232.477V5.703h141.734v226.774zm0 0" fill="none" stroke-width="2.835" stroke="#d31717" stroke-miterlimit="10"/><use xlink:href="#b" x="25.617" y="33.854" fill="#d31717"/><g fill="#d31717"><use xlink:href="#c" x="42.625" y="25.35"/><use xlink:href="#d" x="49.319" y="25.35"/><use xlink:href="#e" x="55.208" y="25.35"/></g><g clip-path="url(#f)"><path d="M34.055 82.238v73.703a5.667 5.667 0 005.668 5.668h73.703a5.667 5.667 0 005.668-5.668V82.238a5.67 5.67 0 00-5.668-5.668H39.723a5.67 5.67 0 00-5.668 5.668zm0 0" fill="none" stroke-width="2.835" stroke="#d31717" stroke-miterlimit="10"/></g><use xlink:href="#g" x="127.529" y="204.331" fill="#d31717"/><g fill="#d31717"><use xlink:href="#h" x="110.521" y="212.835"/><use xlink:href="#i" x="103.827" y="212.835"/><use xlink:href="#j" x="97.938" y="212.835"/></g><use xlink:href="#k" x="61.05" y="140.153" fill="#d31717"/></svg>