<svg xmlns="http://www.w3.org/2000/svg" xmlns:xlink="http://www.w3.org/1999/xlink" width="204.195" height="317.58" viewBox="0 0 153.146 238.185"><defs><symbol overflow="visible" id="b"><path d="M3.594-7.484c0-1.25.062-2.532.64-3.657.454-.859 1.516-1.671 2.844-1.671.406 0 1.14.062 1.64.578-.78.093-1.124.671-1.124 1.218 0 .75.562 1.22 1.218 1.22.547 0 1.22-.345 1.22-1.25 0-1.25-.813-2.5-2.985-2.5-2.578 0-6.078 1.608-6.078 7 0 1.374 0 6.796 4.89 6.796 2.735 0 4.766-1.61 4.766-4.5 0-2.89-2.016-4.422-4.469-4.422-.406 0-1.734 0-2.562 1.75zm2.25 6.906C4.53-.578 4-1.688 3.922-1.86c-.281-.688-.281-2.329-.281-2.516C3.64-6.922 4.734-8 5.953-8 8-8 8-6.344 8-4.281 8-2.234 8-.578 5.844-.578zm0 0"/></symbol><symbol overflow="visible" id="c"><path d="M5.969-1.531h.61v-.39c-.095.015-.75.03-1.173.03h-.86c-.202 0-.546-.015-.75-.03v.39h1.11v.656c0 .172 0 .563-1.031.563-.328 0-1.094-.016-1.64-.485-.329-.281-.579-.719-.579-1.594 0-.703.157-1.218.532-1.562.453-.438 1.156-.516 1.578-.516.78 0 1.53.469 1.703 1.375.015.14.031.156.218.156h.063c.188 0 .219-.015.219-.218v-1.485c0-.14 0-.218-.157-.218-.093 0-.109 0-.171.062l-.47.406c-.702-.468-1.343-.468-1.562-.468C1.594-4.86.516-3.734.516-2.391c0 1.125.812 2.47 3.156 2.47.375 0 1.172-.017 1.531-.376.156.11.578.297.64.297.126 0 .126-.125.126-.219zm0 0"/></symbol><symbol overflow="visible" id="d"><path d="M4.39-2.36c.391-.124 1.157-.437 1.157-1.109 0-.75-.906-1.312-2.297-1.312H.39v.39h.75v4H.39V0a40.27 40.27 0 011.25-.031c.032 0 1.063.015 1.25.031v-.39h-.75v-1.844h.97c.14 0 .437 0 .718.234.25.188.25.36.25.86 0 .562 0 1.218 1.61 1.218.828 0 .937-.61.937-.765 0-.172-.125-.172-.219-.172-.093 0-.203 0-.218.156-.032.375-.282.469-.438.469-.453 0-.516-.454-.578-1-.078-.47-.125-.891-.781-1.125zm-1.234-.187H2.141V-4.39h1.046c1.126 0 1.22.47 1.22.922 0 .438-.095.922-1.25.922zm0 0"/></symbol><symbol overflow="visible" id="e"><path d="M5.594-1.875h-.438c-.187 1-.484 1.484-1.687 1.484H2.188v-1.875h.468c.594 0 .797.172.797.782h.438v-1.938h-.438c0 .61-.203.781-.797.781h-.469v-1.703h1.22c.968 0 1.374.282 1.5 1.282h.452l-.25-1.672H.391v.39h.75V-.39H.39V0h4.843zm0 0"/></symbol><symbol overflow="visible" id="f"><path d="M2.281-4.688c-.094-.093-.094-.093-.25-.093H.391v.39h.75v3.829c0 .109 0 .109-.016.125-.063.046-.422.046-.5.046H.391V0c.093 0 .734-.031 1-.031.265 0 .937.031.984.031v-.39h-.234c-.094 0-.235 0-.344-.016-.156-.016-.172-.016-.172-.156v-3.485L5.359-.078C5.422 0 5.453 0 5.594 0c.203 0 .234-.031.234-.25v-3.969c0-.11.016-.11.031-.125.063-.047.407-.047.485-.047h.234v-.39c-.094 0-.719.031-.984.031-.266 0-.938-.031-1-.031v.39h.234c.11 0 .25 0 .344.016.172.016.172.016.172.156v2.797zm0 0"/></symbol><symbol overflow="visible" id="h"><path d="M-3.594 7.484c0 1.25-.062 2.532-.64 3.657-.454.859-1.516 1.671-2.844 1.671-.406 0-1.14-.062-1.64-.578.78-.093 1.124-.671 1.124-1.218 0-.75-.562-1.22-1.218-1.22-.547 0-1.22.345-1.22 1.25 0 1.25.813 2.5 2.985 2.5 2.578 0 6.078-1.608 6.078-7 0-1.374 0-6.796-4.89-6.796-2.735 0-4.766 1.61-4.766 4.5 0 2.89 2.016 4.422 4.469 4.422.406 0 1.734 0 2.562-1.75zM-5.844.578C-4.53.578-4 1.688-3.922 1.86c.281.688.281 2.329.281 2.516C-3.64 6.922-4.734 8-5.953 8-8 8-8 6.344-8 4.281-8 2.234-8 .578-5.844.578zm0 0"/></symbol><symbol overflow="visible" id="i"><path d="M-5.969 1.531h-.61v.39c.095-.015.75-.03 1.173-.03h.86c.202 0 .546.015.75.03v-.39h-1.11V.875c0-.172 0-.563 1.031-.563.328 0 1.094.016 1.64.485.329.281.579.719.579 1.594 0 .703-.157 1.218-.532 1.562-.453.438-1.156.516-1.578.516-.78 0-1.53-.469-1.703-1.375-.015-.14-.031-.156-.218-.156h-.063c-.188 0-.219.015-.219.218v1.485c0 .14 0 .218.157.218.093 0 .109 0 .171-.062l.47-.406a2.714 2.714 0 001.562.468c2.015 0 3.093-1.125 3.093-2.468 0-1.125-.812-2.47-3.156-2.47-.375 0-1.172.017-1.531.376C-5.36.187-5.781 0-5.843 0c-.126 0-.126.125-.126.219zm0 0"/></symbol><symbol overflow="visible" id="j"><path d="M-4.39 2.36c-.391.124-1.157.437-1.157 1.109 0 .75.906 1.312 2.297 1.312h2.86v-.39h-.75v-4h.75V0a40.27 40.27 0 01-1.25.031C-1.673.031-2.704.016-2.89 0v.39h.75v1.844h-.97c-.14 0-.437 0-.718-.234-.25-.188-.25-.36-.25-.86 0-.562 0-1.218-1.61-1.218-.828 0-.937.61-.937.765 0 .172.125.172.219.172.093 0 .203 0 .218-.156.032-.375.282-.469.438-.469.453 0 .516.454.578 1 .078.47.125.891.781 1.125zm1.234.187h1.015V4.39h-1.046c-1.126 0-1.22-.47-1.22-.922 0-.438.095-.922 1.25-.922zm0 0"/></symbol><symbol overflow="visible" id="k"><path d="M-5.594 1.875h.438C-4.97.875-4.672.391-3.47.391h1.281v1.875h-.468c-.594 0-.797-.172-.797-.782h-.438v1.938h.438c0-.61.203-.781.797-.781h.469v1.703h-1.22c-.968 0-1.374-.282-1.5-1.282h-.452l.25 1.672h4.718v-.39h-.75V.39h.75V0h-4.843zm0 0"/></symbol><symbol overflow="visible" id="l"><path d="M-2.281 4.688c.094.093.094.093.25.093h1.64v-.39h-.75V.562c0-.109 0-.109.016-.125.063-.046.422-.046.5-.046h.234V0c-.093 0-.734.031-1 .031-.265 0-.937-.031-.984-.031v.39h.234c.094 0 .235 0 .344.016.156.016.172.016.172.156v3.485L-5.359.078C-5.422 0-5.453 0-5.594 0c-.203 0-.234.031-.234.25v3.969c0 .11-.016.11-.031.125-.063.047-.407.047-.485.047h-.234v.39c.094 0 .719-.031.984-.031.266 0 .938.031 1 .031v-.39h-.234c-.11 0-.25 0-.344-.016-.172-.016-.172-.016-.172-.156V1.422zm0 0"/></symbol><symbol overflow="visible" id="m"><path d="M10.406-21.64c0-3.641.172-7.36 1.844-10.579 1.328-2.515 4.375-4.843 8.25-4.843 1.14 0 3.297.171 4.734 1.671-2.28.235-3.234 1.907-3.234 3.532 0 2.14 1.61 3.515 3.531 3.515 1.547 0 3.516-1.015 3.516-3.64 0-3.578-2.39-7.235-8.656-7.235-7.485 0-17.578 4.672-17.578 20.266 0 4 0 19.672 14.171 19.672 7.891 0 13.75-4.672 13.75-13.031 0-8.376-5.812-12.797-12.922-12.797-1.187 0-5.015 0-7.406 5.078zm6.516 19.968c-3.828 0-5.328-3.234-5.563-3.703-.843-1.984-.843-6.766-.843-7.297 0-7.36 3.171-10.469 6.703-10.469 5.922 0 5.922 4.782 5.922 10.766 0 5.922 0 10.703-6.22 10.703zm0 0"/></symbol><clipPath id="a"><path d="M0 0h153.145v238.184H0zm0 0"/></clipPath><clipPath id="g"><path d="M0 36h153.145v166H0zm0 0"/></clipPath></defs><g clip-path="url(#a)"><path d="M0 238.184V-.004h153.148v238.188zm0 0" fill="#fefefe"/></g><path d="M5.707 232.477V5.703h141.734v226.774zm0 0" fill="none" stroke-width="2.835" stroke="#3d8922" stroke-miterlimit="10"/><use xlink:href="#b" x="25.617" y="33.854" fill="#3d8922"/><g fill="#3d8922"><use xlink:href="#c" x="42.625" y="25.35"/><use xlink:href="#d" x="49.679" y="25.35"/><use xlink:href="#e" x="56.373" y="25.35"/><use xlink:href="#e" x="62.262" y="25.35"/><use xlink:href="#f" x="68.151" y="25.35"/></g><g clip-path="url(#g)"><path d="M34.055 82.238v73.703a5.667 5.667 0 005.668 5.668h73.703a5.667 5.667 0 005.668-5.668V82.238a5.67 5.67 0 00-5.668-5.668H39.723a5.67 5.67 0 00-5.668 5.668zm0 0" fill="none" stroke-width="2.835" stroke="#3d8922" stroke-miterlimit="10"/></g><use xlink:href="#h" x="127.529" y="204.331" fill="#3d8922"/><g fill="#3d8922"><use xlink:href="#i" x="110.521" y="212.835"/><use xlink:href="#j" x="103.467" y="212.835"/><use xlink:href="#k" x="96.773" y="212.835"/><use xlink:href="#k" x="90.884" y="212.835"/><use xlink:href="#l" x="84.995" y="212.835"/></g><use xlink:href="#m" x="61.05" y="140.153" fill="#3d8922"/></svg>