<svg xmlns="http://www.w3.org/2000/svg" xmlns:xlink="http://www.w3.org/1999/xlink" width="204.195" height="317.58" viewBox="0 0 153.146 238.185"><defs><symbol overflow="visible" id="b"><path d="M8-5.828c0 1.453 0 5.25-3.234 5.25-.641 0-1.375-.172-1.813-.5.594-.125 1.031-.547 1.031-1.219 0-.734-.562-1.219-1.218-1.219-.532 0-1.22.36-1.22 1.266 0 1.438 1.141 2.5 3.266 2.5 2.625 0 5.813-1.719 5.813-7.047 0-1.39 0-6.75-4.781-6.75C3-13.547.969-11.89.969-9.062c0 2.859 1.984 4.421 4.468 4.421.86 0 1.891-.312 2.563-1.78zm-2.36.5C3.595-5.328 3.595-7 3.595-9.031c0-1.985 0-3.781 2.25-3.781 1.328 0 1.797 1.187 1.875 1.406.218.625.25 1.906.25 2.594 0 1.437-.594 3.484-2.328 3.484zm0 0"/></symbol><symbol overflow="visible" id="c"><path d="M.406-4.781v.39h.75v4h-.75V0h3.516c1.234 0 1.922-.61 1.922-1.297 0-.531-.438-1.078-1.516-1.203.86-.156 1.266-.61 1.266-1.063 0-.687-.735-1.218-1.922-1.218zm1.719 2.14v-1.75h1.469c.672 0 .953.391.953.829 0 .562-.469.921-1.156.921zm0 2.25v-1.937h1.547c.984 0 1.078.765 1.078 1.015 0 .47-.328.922-1.14.922zm0 0"/></symbol><symbol overflow="visible" id="d"><path d="M4.984-1.875h-.437C4.469-1.25 4.25-.391 3.016-.391h-.829v-4h.938v-.39c-.156.015-.531.015-.688.015-.25 0-.5.016-.75.016-.437 0-.906 0-1.296-.031v.39h.75v4H.39V0H4.75zm0 0"/></symbol><symbol overflow="visible" id="e"><path d="M3.75-4.703c-.078-.203-.172-.203-.375-.203-.219 0-.297 0-.39.203L1.108-.516c-.046.079-.046.094-.218.11-.141.015-.204.015-.329.015H.36V0c.032 0 .547-.031.86-.031.312 0 .968.031 1 .031v-.39c-.031 0-.61 0-.61-.063 0 0 .032-.063.047-.063l.375-.843h2.125l.438.968h-.625V0c.36-.031.89-.031 1.265-.031.438 0 1.047.031 1.157.031v-.39h-.704zm-.656.969l.89 1.984h-1.78zm0 0"/></symbol><symbol overflow="visible" id="f"><path d="M5.953-4.64c0-.141 0-.22-.156-.22-.078 0-.094 0-.172.063l-.469.406c-.687-.468-1.343-.468-1.547-.468C1.58-4.86.516-3.734.516-2.391c0 1.313 1.03 2.47 3.093 2.47 1.438 0 2.344-.798 2.344-1.673 0-.172-.078-.172-.219-.172-.093 0-.203 0-.218.125C5.453-.578 4.39-.312 3.78-.312c-.562 0-1.203-.141-1.625-.547-.406-.391-.5-.985-.5-1.532 0-.656.14-1.265.61-1.64.484-.36 1.078-.438 1.5-.438.906 0 1.546.61 1.687 1.328.031.188.031.204.234.204h.047c.204 0 .22-.016.22-.22zm0 0"/></symbol><symbol overflow="visible" id="g"><path d="M3.797-2.89l1.875-1.407c.078-.062.14-.094.594-.094h.187v-.39s-.422.031-.734.031c-.407 0-1.078-.031-1.125-.031v.39c.125 0 .234 0 .406.047L2.187-2.266V-4.39h.75v-.39c-.156.015-1.156.031-1.265.031-.156 0-1.125-.016-1.281-.031v.39h.75v4H.39V0a37.793 37.793 0 011.28-.031c.141 0 1.11.015 1.266.031v-.39h-.75V-1.72l.86-.625L4.719-.438c-.14.047-.157.047-.438.047V0c.36-.031.907-.031 1.266-.031.312 0 1.016.031 1.031.031v-.39h-.266c-.343 0-.359-.016-.421-.094zm0 0"/></symbol><symbol overflow="visible" id="i"><path d="M-8 5.828c0-1.453 0-5.25 3.234-5.25.641 0 1.375.172 1.813.5-.594.125-1.031.547-1.031 1.219 0 .734.562 1.219 1.218 1.219.532 0 1.22-.36 1.22-1.266 0-1.438-1.141-2.5-3.266-2.5-2.625 0-5.813 1.719-5.813 7.047 0 1.39 0 6.75 4.781 6.75 2.844 0 4.875-1.656 4.875-4.485 0-2.859-1.984-4.421-4.468-4.421-.86 0-1.891.312-2.563 1.78zm2.36-.5c2.046 0 2.046 1.672 2.046 3.703 0 1.985 0 3.781-2.25 3.781-1.328 0-1.797-1.187-1.875-1.406-.218-.625-.25-1.906-.25-2.594 0-1.437.594-3.484 2.328-3.484zm0 0"/></symbol><symbol overflow="visible" id="j"><path d="M-.406 4.781v-.39h-.75v-4h.75V0h-3.516c-1.234 0-1.922.61-1.922 1.297 0 .531.438 1.078 1.516 1.203-.86.156-1.266.61-1.266 1.063 0 .687.735 1.218 1.922 1.218zm-1.719-2.14v1.75h-1.469c-.672 0-.953-.391-.953-.829 0-.562.469-.921 1.156-.921zm0-2.25v1.937h-1.547c-.984 0-1.078-.765-1.078-1.015 0-.47.328-.922 1.14-.922zm0 0"/></symbol><symbol overflow="visible" id="k"><path d="M-4.984 1.875h.437C-4.469 1.25-4.25.391-3.016.391h.829v4h-.938v.39c.156-.015.531-.015.688-.015.25 0 .5-.016.75-.016.437 0 .906 0 1.296.031v-.39h-.75v-4h.75V0H-4.75zm0 0"/></symbol><symbol overflow="visible" id="l"><path d="M-3.75 4.703c.078.203.172.203.375.203.219 0 .297 0 .39-.203L-1.108.516c.046-.079.046-.094.218-.11.141-.015.204-.015.329-.015h.203V0c-.032 0-.547.031-.86.031-.312 0-.968-.031-1-.031v.39c.031 0 .61 0 .61.063 0 0-.032.063-.047.063l-.375.843h-2.125l-.438-.968h.625V0c-.36.031-.89.031-1.265.031C-5.672.031-6.281 0-6.391 0v.39h.704zm.656-.969l-.89-1.984h1.78zm0 0"/></symbol><symbol overflow="visible" id="m"><path d="M-5.953 4.64c0 .141 0 .22.156.22.078 0 .094 0 .172-.063l.469-.406a2.675 2.675 0 001.547.468c2.03 0 3.093-1.125 3.093-2.468 0-1.313-1.03-2.47-3.093-2.47-1.438 0-2.344.798-2.344 1.673 0 .172.078.172.219.172.093 0 .203 0 .218-.125C-5.453.578-4.39.312-3.78.312c.562 0 1.203.141 1.625.547.406.391.5.985.5 1.532 0 .656-.14 1.265-.61 1.64-.484.36-1.078.438-1.5.438-.906 0-1.546-.61-1.687-1.328-.031-.188-.031-.204-.234-.204h-.047c-.204 0-.22.016-.22.22zm0 0"/></symbol><symbol overflow="visible" id="n"><path d="M-3.797 2.89l-1.875 1.407c-.078.062-.14.094-.594.094h-.187v.39s.422-.031.734-.031c.407 0 1.078.031 1.125.031v-.39c-.125 0-.234 0-.406-.047l2.813-2.078V4.39h-.75v.39a36.913 36.913 0 011.265-.031c.156 0 1.125.016 1.281.031v-.39h-.75v-4h.75V0c-.171.016-1.156.031-1.28.031-.141 0-1.11-.015-1.266-.031v.39h.75V1.72l-.86.625L-4.719.438c.14-.047.157-.047.438-.047V0c-.36.031-.907.031-1.266.031C-5.859.031-6.563 0-6.578 0v.39h.266c.343 0 .359.016.421.094zm0 0"/></symbol><symbol overflow="visible" id="o"><path d="M23.14-16.86c0 4.188 0 15.188-9.328 15.188-1.859 0-4.015-.484-5.265-1.437 1.734-.36 2.984-1.61 2.984-3.532 0-2.14-1.61-3.515-3.515-3.515-1.563 0-3.532 1.015-3.532 3.64C4.484-2.328 7.766.72 13.922.72c7.594 0 16.812-4.969 16.812-20.39 0-4 0-19.548-13.812-19.548-8.25 0-14.11 4.782-14.11 12.969 0 8.313 5.735 12.797 12.907 12.797 2.515 0 5.5-.89 7.422-5.14zm-6.828 1.438c-5.906 0-5.906-4.844-5.906-10.703 0-5.734 0-10.938 6.516-10.938 3.828 0 5.203 3.407 5.437 4.063.594 1.797.72 5.5.72 7.469 0 4.187-1.735 10.11-6.767 10.11zm0 0"/></symbol><clipPath id="a"><path d="M0 0h153.145v238.184H0zm0 0"/></clipPath><clipPath id="h"><path d="M0 36h153.145v166H0zm0 0"/></clipPath></defs><g clip-path="url(#a)"><path d="M0 238.184V-.004h153.148v238.188zm0 0" fill="#fefefe"/></g><path d="M5.707 232.477V5.703h141.734v226.774zm0 0" fill="none" stroke-width="2.835" stroke="#000" stroke-miterlimit="10"/><use xlink:href="#b" x="25.617" y="33.854"/><use xlink:href="#c" x="42.625" y="25.35"/><use xlink:href="#d" x="49" y="25.35"/><use xlink:href="#e" x="54.393" y="25.35"/><use xlink:href="#f" x="60.892" y="25.35"/><use xlink:href="#g" x="67.388" y="25.35"/><g clip-path="url(#h)"><path d="M34.055 82.238v73.703a5.667 5.667 0 005.668 5.668h73.703a5.667 5.667 0 005.668-5.668V82.238a5.67 5.67 0 00-5.668-5.668H39.723a5.67 5.67 0 00-5.668 5.668zm0 0" fill="none" stroke-width="2.835" stroke="#000" stroke-miterlimit="10"/></g><use xlink:href="#i" x="127.529" y="204.331"/><g><use xlink:href="#j" x="110.521" y="212.835"/><use xlink:href="#k" x="104.146" y="212.835"/><use xlink:href="#l" x="98.753" y="212.835"/></g><g><use xlink:href="#m" x="92.254" y="212.835"/><use xlink:href="#n" x="85.758" y="212.835"/></g><g><use xlink:href="#o" x="61.05" y="140.153"/></g></svg>