<svg xmlns="http://www.w3.org/2000/svg" xmlns:xlink="http://www.w3.org/1999/xlink" width="204.195" height="317.58" viewBox="0 0 153.146 238.185"><defs><symbol overflow="visible" id="b"><path d="M8-5.828c0 1.453 0 5.25-3.234 5.25-.641 0-1.375-.172-1.813-.5.594-.125 1.031-.547 1.031-1.219 0-.734-.562-1.219-1.218-1.219-.532 0-1.22.36-1.22 1.266 0 1.438 1.141 2.5 3.266 2.5 2.625 0 5.813-1.719 5.813-7.047 0-1.39 0-6.75-4.781-6.75C3-13.547.969-11.89.969-9.062c0 2.859 1.984 4.421 4.468 4.421.86 0 1.891-.312 2.563-1.78zm-2.36.5C3.595-5.328 3.595-7 3.595-9.031c0-1.985 0-3.781 2.25-3.781 1.328 0 1.797 1.187 1.875 1.406.218.625.25 1.906.25 2.594 0 1.437-.594 3.484-2.328 3.484zm0 0"/></symbol><symbol overflow="visible" id="c"><path d="M4.39-2.36c.391-.124 1.157-.437 1.157-1.109 0-.75-.906-1.312-2.297-1.312H.39v.39h.75v4H.39V0a40.27 40.27 0 011.25-.031c.032 0 1.063.015 1.25.031v-.39h-.75v-1.844h.97c.14 0 .437 0 .718.234.25.188.25.36.25.86 0 .562 0 1.218 1.61 1.218.828 0 .937-.61.937-.765 0-.172-.125-.172-.219-.172-.093 0-.203 0-.218.156-.032.375-.282.469-.438.469-.453 0-.516-.454-.578-1-.078-.47-.125-.891-.781-1.125zm-1.234-.187H2.141V-4.39h1.046c1.126 0 1.22.47 1.22.922 0 .438-.095.922-1.25.922zm0 0"/></symbol><symbol overflow="visible" id="d"><path d="M5.594-1.875h-.438c-.187 1-.484 1.484-1.687 1.484H2.188v-1.875h.468c.594 0 .797.172.797.782h.438v-1.938h-.438c0 .61-.203.781-.797.781h-.469v-1.703h1.22c.968 0 1.374.282 1.5 1.282h.452l-.25-1.672H.391v.39h.75V-.39H.39V0h4.843zm0 0"/></symbol><symbol overflow="visible" id="e"><path d="M.39-4.781v.39h.75v4H.39V0h3.282c1.531 0 2.656-.89 2.656-2.36 0-1.453-1.078-2.421-2.672-2.421zm1.75 4.39v-4h1.22c1.89 0 1.89 1.407 1.89 2.032s0 1.968-1.875 1.968zm0 0"/></symbol><symbol overflow="visible" id="g"><path d="M-8 5.828c0-1.453 0-5.25 3.234-5.25.641 0 1.375.172 1.813.5-.594.125-1.031.547-1.031 1.219 0 .734.562 1.219 1.218 1.219.532 0 1.22-.36 1.22-1.266 0-1.438-1.141-2.5-3.266-2.5-2.625 0-5.813 1.719-5.813 7.047 0 1.39 0 6.75 4.781 6.75 2.844 0 4.875-1.656 4.875-4.485 0-2.859-1.984-4.421-4.468-4.421-.86 0-1.891.312-2.563 1.78zm2.36-.5c2.046 0 2.046 1.672 2.046 3.703 0 1.985 0 3.781-2.25 3.781-1.328 0-1.797-1.187-1.875-1.406-.218-.625-.25-1.906-.25-2.594 0-1.437.594-3.484 2.328-3.484zm0 0"/></symbol><symbol overflow="visible" id="h"><path d="M-4.39 2.36c-.391.124-1.157.437-1.157 1.109 0 .75.906 1.312 2.297 1.312h2.86v-.39h-.75v-4h.75V0a40.27 40.27 0 01-1.25.031C-1.673.031-2.704.016-2.89 0v.39h.75v1.844h-.97c-.14 0-.437 0-.718-.234-.25-.188-.25-.36-.25-.86 0-.562 0-1.218-1.61-1.218-.828 0-.937.61-.937.765 0 .172.125.172.219.172.093 0 .203 0 .218-.156.032-.375.282-.469.438-.469.453 0 .516.454.578 1 .078.47.125.891.781 1.125zm1.234.187h1.015V4.39h-1.046c-1.126 0-1.22-.47-1.22-.922 0-.438.095-.922 1.25-.922zm0 0"/></symbol><symbol overflow="visible" id="i"><path d="M-5.594 1.875h.438C-4.97.875-4.672.391-3.47.391h1.281v1.875h-.468c-.594 0-.797-.172-.797-.782h-.438v1.938h.438c0-.61.203-.781.797-.781h.469v1.703h-1.22c-.968 0-1.374-.282-1.5-1.282h-.452l.25 1.672h4.718v-.39h-.75V.39h.75V0h-4.843zm0 0"/></symbol><symbol overflow="visible" id="j"><path d="M-.39 4.781v-.39h-.75v-4h.75V0h-3.282c-1.531 0-2.656.89-2.656 2.36 0 1.453 1.078 2.421 2.672 2.421zM-2.14.391v4h-1.22c-1.89 0-1.89-1.407-1.89-2.032s0-1.968 1.875-1.968zm0 0"/></symbol><symbol overflow="visible" id="k"><path d="M23.14-16.86c0 4.188 0 15.188-9.328 15.188-1.859 0-4.015-.484-5.265-1.437 1.734-.36 2.984-1.61 2.984-3.532 0-2.14-1.61-3.515-3.515-3.515-1.563 0-3.532 1.015-3.532 3.64C4.484-2.328 7.766.72 13.922.72c7.594 0 16.812-4.969 16.812-20.39 0-4 0-19.548-13.812-19.548-8.25 0-14.11 4.782-14.11 12.969 0 8.313 5.735 12.797 12.907 12.797 2.515 0 5.5-.89 7.422-5.14zm-6.828 1.438c-5.906 0-5.906-4.844-5.906-10.703 0-5.734 0-10.938 6.516-10.938 3.828 0 5.203 3.407 5.437 4.063.594 1.797.72 5.5.72 7.469 0 4.187-1.735 10.11-6.767 10.11zm0 0"/></symbol><clipPath id="a"><path d="M0 0h153.145v238.184H0zm0 0"/></clipPath><clipPath id="f"><path d="M0 36h153.145v166H0zm0 0"/></clipPath></defs><g clip-path="url(#a)"><path d="M0 238.184V-.004h153.148v238.188zm0 0" fill="#fefefe"/></g><path d="M5.707 232.477V5.703h141.734v226.774zm0 0" fill="none" stroke-width="2.835" stroke="#d31717" stroke-miterlimit="10"/><use xlink:href="#b" x="25.617" y="33.854" fill="#d31717"/><g fill="#d31717"><use xlink:href="#c" x="42.625" y="25.35"/><use xlink:href="#d" x="49.319" y="25.35"/><use xlink:href="#e" x="55.208" y="25.35"/></g><g clip-path="url(#f)"><path d="M34.055 82.238v73.703a5.667 5.667 0 005.668 5.668h73.703a5.667 5.667 0 005.668-5.668V82.238a5.67 5.67 0 00-5.668-5.668H39.723a5.67 5.67 0 00-5.668 5.668zm0 0" fill="none" stroke-width="2.835" stroke="#d31717" stroke-miterlimit="10"/></g><use xlink:href="#g" x="127.529" y="204.331" fill="#d31717"/><g fill="#d31717"><use xlink:href="#h" x="110.521" y="212.835"/><use xlink:href="#i" x="103.827" y="212.835"/><use xlink:href="#j" x="97.938" y="212.835"/></g><use xlink:href="#k" x="61.05" y="140.153" fill="#d31717"/></svg>