<svg xmlns="http://www.w3.org/2000/svg" xmlns:xlink="http://www.w3.org/1999/xlink" width="204.195" height="317.58" viewBox="0 0 153.146 238.185"><defs><symbol overflow="visible" id="b"><path d="M8-5.828c0 1.453 0 5.25-3.234 5.25-.641 0-1.375-.172-1.813-.5.594-.125 1.031-.547 1.031-1.219 0-.734-.562-1.219-1.218-1.219-.532 0-1.22.36-1.22 1.266 0 1.438 1.141 2.5 3.266 2.5 2.625 0 5.813-1.719 5.813-7.047 0-1.39 0-6.75-4.781-6.75C3-13.547.969-11.89.969-9.062c0 2.859 1.984 4.421 4.468 4.421.86 0 1.891-.312 2.563-1.78zm-2.36.5C3.595-5.328 3.595-7 3.595-9.031c0-1.985 0-3.781 2.25-3.781 1.328 0 1.797 1.187 1.875 1.406.218.625.25 1.906.25 2.594 0 1.437-.594 3.484-2.328 3.484zm0 0"/></symbol><symbol overflow="visible" id="c"><path d="M5.734-4.281c.063-.078.063-.078.235-.094.093-.016.234-.016.343-.016h.204v-.39c-.282.015-.563.031-.844.031-.25 0-.89-.031-1-.031v.39c.156 0 .312 0 .484.047l-1.468 1.86-1.5-1.907h.53v-.39c-.343.031-.968.031-1.327.031-.438 0-1.079-.031-1.172-.031v.39h.703l1.937 2.485v1.515h-.734V0a38.241 38.241 0 011.234-.031c.266 0 1.125.031 1.25.031v-.39h-.734v-1.516zm0 0"/></symbol><symbol overflow="visible" id="d"><path d="M5.594-1.875h-.438c-.187 1-.484 1.484-1.687 1.484H2.188v-1.875h.468c.594 0 .797.172.797.782h.438v-1.938h-.438c0 .61-.203.781-.797.781h-.469v-1.703h1.22c.968 0 1.374.282 1.5 1.282h.452l-.25-1.672H.391v.39h.75V-.39H.39V0h4.843zm0 0"/></symbol><symbol overflow="visible" id="e"><path d="M4.984-1.875h-.437C4.469-1.25 4.25-.391 3.016-.391h-.829v-4h.938v-.39c-.156.015-.531.015-.688.015-.25 0-.5.016-.75.016-.437 0-.906 0-1.296-.031v.39h.75v4H.39V0H4.75zm0 0"/></symbol><symbol overflow="visible" id="f"><path d="M6.219-2.36c0-1.374-.969-2.5-2.844-2.5-1.922 0-2.86 1.157-2.86 2.5C.516-1.015 1.5.079 3.36.079c1.922 0 2.86-1.11 2.86-2.437zM3.359-.28c-.421 0-.984-.156-1.359-.672-.313-.469-.344-1.125-.344-1.516 0-.469.047-1.031.39-1.469.298-.374.782-.578 1.313-.578 1.72 0 1.72 1.625 1.72 2.047 0 .531-.063 1.063-.329 1.5-.328.485-.875.688-1.39.688zm0 0"/></symbol><symbol overflow="visible" id="g"><path d="M8.328-4.266c.047-.125.14-.125.5-.125h.156v-.39c-.265.015-.515.031-.765.031-.235 0-1-.031-1.031-.031v.39h.125c.046 0 .562 0 .562.063a.165.165 0 01-.031.078L6.578-1.156 5.234-4.391h.641v-.39c-.375.031-.89.031-1.266.031-.28 0-1-.031-1.062-.031v.39h.594l.234.532L3.25-1.156 1.922-4.391h.64v-.39c-.109 0-1.03.031-1.265.031-.266 0-1-.031-1.063-.031v.39h.61L2.609-.125c.063.172.094.203.344.203.203 0 .266 0 .344-.203l1.312-3.156L5.906-.125c.094.203.188.203.36.203.234 0 .265-.031.343-.203zm0 0"/></symbol><symbol overflow="visible" id="i"><path d="M-8 5.828c0-1.453 0-5.25 3.234-5.25.641 0 1.375.172 1.813.5-.594.125-1.031.547-1.031 1.219 0 .734.562 1.219 1.218 1.219.532 0 1.22-.36 1.22-1.266 0-1.438-1.141-2.5-3.266-2.5-2.625 0-5.813 1.719-5.813 7.047 0 1.39 0 6.75 4.781 6.75 2.844 0 4.875-1.656 4.875-4.485 0-2.859-1.984-4.421-4.468-4.421-.86 0-1.891.312-2.563 1.78zm2.36-.5c2.046 0 2.046 1.672 2.046 3.703 0 1.985 0 3.781-2.25 3.781-1.328 0-1.797-1.187-1.875-1.406-.218-.625-.25-1.906-.25-2.594 0-1.437.594-3.484 2.328-3.484zm0 0"/></symbol><symbol overflow="visible" id="j"><path d="M-5.734 4.281c-.063.078-.063.078-.235.094-.093.016-.234.016-.343.016h-.204v.39c.282-.015.563-.031.844-.031.25 0 .89.031 1 .031v-.39c-.156 0-.312 0-.484-.047l1.468-1.86 1.5 1.907h-.53v.39c.343-.031.968-.031 1.327-.031.438 0 1.079.031 1.172.031v-.39h-.703l-1.937-2.485V.391h.734V0c-.156.016-1.172.031-1.234.031C-3.625.031-4.484 0-4.61 0v.39h.734v1.516zm0 0"/></symbol><symbol overflow="visible" id="k"><path d="M-5.594 1.875h.438C-4.97.875-4.672.391-3.47.391h1.281v1.875h-.468c-.594 0-.797-.172-.797-.782h-.438v1.938h.438c0-.61.203-.781.797-.781h.469v1.703h-1.22c-.968 0-1.374-.282-1.5-1.282h-.452l.25 1.672h4.718v-.39h-.75V.39h.75V0h-4.843zm0 0"/></symbol><symbol overflow="visible" id="l"><path d="M-4.984 1.875h.437C-4.469 1.25-4.25.391-3.016.391h.829v4h-.938v.39c.156-.015.531-.015.688-.015.25 0 .5-.016.75-.016.437 0 .906 0 1.296.031v-.39h-.75v-4h.75V0H-4.75zm0 0"/></symbol><symbol overflow="visible" id="m"><path d="M-6.219 2.36c0 1.374.969 2.5 2.844 2.5 1.922 0 2.86-1.157 2.86-2.5 0-1.344-.985-2.438-2.844-2.438-1.922 0-2.86 1.11-2.86 2.437zM-3.359.28c.421 0 .984.156 1.359.672.313.469.344 1.125.344 1.516 0 .469-.047 1.031-.39 1.469-.298.374-.782.578-1.313.578-1.72 0-1.72-1.625-1.72-2.047 0-.531.063-1.063.329-1.5.328-.485.875-.688 1.39-.688zm0 0"/></symbol><symbol overflow="visible" id="n"><path d="M-8.328 4.266c-.047.125-.14.125-.5.125h-.156v.39c.265-.015.515-.031.765-.031.235 0 1 .031 1.031.031v-.39h-.125c-.046 0-.562 0-.562-.063 0-.016.016-.062.031-.078l1.266-3.094 1.344 3.235h-.641v.39c.375-.031.89-.031 1.266-.031.28 0 1 .031 1.062.031v-.39h-.594l-.234-.532 1.125-2.703 1.328 3.235h-.64v.39c.109 0 1.03-.031 1.265-.031.266 0 1 .031 1.063.031v-.39h-.61L-2.609.125c-.063-.172-.094-.203-.344-.203-.203 0-.266 0-.344.203l-1.312 3.156L-5.906.125c-.094-.203-.188-.203-.36-.203-.234 0-.265.031-.343.203zm0 0"/></symbol><symbol overflow="visible" id="o"><path d="M23.14-16.86c0 4.188 0 15.188-9.328 15.188-1.859 0-4.015-.484-5.265-1.437 1.734-.36 2.984-1.61 2.984-3.532 0-2.14-1.61-3.515-3.515-3.515-1.563 0-3.532 1.015-3.532 3.64C4.484-2.328 7.766.72 13.922.72c7.594 0 16.812-4.969 16.812-20.39 0-4 0-19.548-13.812-19.548-8.25 0-14.11 4.782-14.11 12.969 0 8.313 5.735 12.797 12.907 12.797 2.515 0 5.5-.89 7.422-5.14zm-6.828 1.438c-5.906 0-5.906-4.844-5.906-10.703 0-5.734 0-10.938 6.516-10.938 3.828 0 5.203 3.407 5.437 4.063.594 1.797.72 5.5.72 7.469 0 4.187-1.735 10.11-6.767 10.11zm0 0"/></symbol><clipPath id="a"><path d="M0 0h153.145v238.184H0zm0 0"/></clipPath><clipPath id="h"><path d="M0 36h153.145v166H0zm0 0"/></clipPath></defs><g clip-path="url(#a)"><path d="M0 238.184V-.004h153.148v238.188zm0 0" fill="#fefefe"/></g><path d="M5.707 232.477V5.703h141.734v226.774zm0 0" fill="none" stroke-width="2.835" stroke="#ff8c00" stroke-miterlimit="10"/><use xlink:href="#b" x="25.617" y="33.854" fill="#ff8c00"/><g fill="#ff8c00"><use xlink:href="#c" x="42.625" y="25.35"/><use xlink:href="#d" x="49.375" y="25.35"/><use xlink:href="#e" x="55.264" y="25.35"/><use xlink:href="#e" x="60.657" y="25.35"/><use xlink:href="#f" x="66.051" y="25.35"/></g><use xlink:href="#g" x="72.552" y="25.35" fill="#ff8c00"/><g clip-path="url(#h)"><path d="M34.055 82.238v73.703a5.667 5.667 0 005.668 5.668h73.703a5.667 5.667 0 005.668-5.668V82.238a5.67 5.67 0 00-5.668-5.668H39.723a5.67 5.67 0 00-5.668 5.668zm0 0" fill="none" stroke-width="2.835" stroke="#ff8c00" stroke-miterlimit="10"/></g><use xlink:href="#i" x="127.529" y="204.331" fill="#ff8c00"/><g fill="#ff8c00"><use xlink:href="#j" x="110.521" y="212.835"/><use xlink:href="#k" x="103.771" y="212.835"/><use xlink:href="#l" x="97.882" y="212.835"/><use xlink:href="#l" x="92.489" y="212.835"/><use xlink:href="#m" x="87.095" y="212.835"/></g><use xlink:href="#n" x="80.594" y="212.835" fill="#ff8c00"/><use xlink:href="#o" x="61.05" y="140.153" fill="#ff8c00"/></svg>